<svg width="68" height="68" viewBox="0 0 68 68" fill="none" xmlns="http://www.w3.org/2000/svg">
<circle cx="33.6362" cy="34.3637" r="33.6362" fill="black"/>
<path d="M44.6495 20.0929C43.1232 18.3459 42.2057 16.0679 42.2057 13.5776H40.2932M44.6495 20.0929C46.0404 21.6856 47.9238 22.844 50.0684 23.2975C50.7348 23.4423 51.4302 23.5196 52.1547 23.5196V30.6622C48.4455 30.6622 45.0065 29.4751 42.2052 27.4673V41.9941C42.2052 49.2527 36.2935 55.1504 29.0392 55.1504C25.2429 55.1504 21.8137 53.5287 19.4085 50.9516C17.2157 48.5965 15.873 45.4496 15.873 41.9941C15.873 34.8417 21.6109 29.0117 28.7204 28.8573M44.6495 20.0929C44.6124 20.0687 44.5753 20.0443 44.5385 20.0196M24.1708 45.4883C23.456 44.5038 23.031 43.2974 23.031 41.9845C23.031 38.6739 25.726 35.9808 29.0394 35.9808C29.6576 35.9808 30.2564 36.0868 30.8167 36.2606V28.9636C30.2371 28.8862 29.6479 28.8379 29.0394 28.8379C28.9331 28.8379 28.0772 28.8948 27.9709 28.8948M40.283 13.5776H35.0474L35.0379 42.2161C34.9219 45.4207 32.2751 47.998 29.0392 47.998C27.03 47.998 25.2622 47.0038 24.161 45.498" stroke="white" stroke-linejoin="round"/>
</svg>
