<svg width="1740" height="687" viewBox="0 0 1740 687" fill="none" xmlns="http://www.w3.org/2000/svg">
<rect width="1740" height="687" rx="50" fill="#2C2C2C"/>
<path d="M595.072 390.856C594.752 388.936 594.4 387.016 594.016 385.096C593.632 383.24 592.992 381.832 592.096 380.872C590.944 379.592 589.024 378.504 586.336 377.608C588 377.608 589.152 376.744 589.792 375.016V316.456C589.152 314.664 588.032 313.768 586.432 313.768C589.056 312.872 590.976 311.784 592.192 310.504C593.152 309.48 593.792 308.008 594.112 306.088C594.496 304.168 594.88 302.248 595.264 300.328C595.84 303.016 596.384 305.704 596.896 308.392C597.856 310.76 600.192 312.552 603.904 313.768C602.112 313.768 600.896 314.664 600.256 316.456V316.84C600.256 317.288 600.192 319.848 600.064 324.52C600 329.128 599.968 333.512 599.968 337.672V338.536H644.32V316.456C643.808 314.664 642.688 313.768 640.96 313.768C644.672 312.552 647.008 310.792 647.968 308.488C648.544 305.736 649.12 303.016 649.696 300.328C650.272 303.016 650.848 305.704 651.424 308.392C652.384 310.76 654.72 312.552 658.432 313.768C656.576 313.768 655.392 314.664 654.88 316.456L655.072 375.496C655.648 376.904 656.736 377.608 658.336 377.608C654.624 378.888 652.288 380.648 651.328 382.888C650.752 385.576 650.176 388.232 649.6 390.856C649.28 388.936 648.928 387.016 648.544 385.096C648.16 383.24 647.52 381.832 646.624 380.872C645.472 379.592 643.552 378.504 640.864 377.608C642.656 377.608 643.808 376.744 644.32 375.016L644.416 374.536V349.672H599.968V349.768C599.968 354.824 600 360.104 600.064 365.608C600.192 371.112 600.256 374.088 600.256 374.536V375.016L600.544 375.496C601.12 376.904 602.208 377.608 603.808 377.608C600.096 378.888 597.76 380.648 596.8 382.888C596.224 385.576 595.648 388.232 595.072 390.856ZM644.416 347.176V341.128H599.968V347.176H644.416ZM712.321 409.864C711.233 409.864 710.145 409.832 709.057 409.768C701.377 409.192 694.657 406.664 688.897 402.184C683.137 397.704 679.937 392.36 679.297 386.152L679.105 384.232L676.993 384.136C676.481 384.136 675.681 384.264 674.593 384.52C673.313 384.584 672.257 384.616 671.425 384.616C670.913 384.616 670.625 384.168 670.561 383.272C670.561 382.44 670.881 382.024 671.521 382.024C673.761 382.024 675.649 380.968 677.185 378.856C677.249 378.664 677.409 378.344 677.665 377.896C678.817 375.912 680.257 372.776 681.985 368.488C689.793 352.552 698.945 332.232 709.441 307.528C709.953 306.632 710.529 306.184 711.169 306.184C711.873 306.184 714.145 310.504 717.985 319.144C720.289 324.392 722.593 329.672 724.897 334.984C728.097 342.216 731.265 349.48 734.401 356.776C737.217 363.048 740.065 368.712 742.945 373.768C744.673 376.776 746.209 378.888 747.553 380.104C747.617 380.104 747.681 380.168 747.745 380.296C748.705 381.384 749.665 381.928 750.625 381.928C751.009 381.928 751.201 382.376 751.201 383.272C751.201 384.168 751.009 384.616 750.625 384.616H744.865L743.041 384.424V385.384C743.041 392.232 739.969 397.992 733.825 402.664C727.745 407.4 720.577 409.8 712.321 409.864ZM712.321 408.616C720.001 408.552 726.593 406.344 732.097 401.992C737.601 397.704 740.609 392.392 741.121 386.056L741.025 384.232L739.585 383.944H739.393C737.793 383.624 736.289 383.464 734.881 383.464C734.369 383.464 734.113 383.464 734.113 383.464C733.281 383.528 731.841 383.752 729.793 384.136C728.001 384.456 726.529 384.616 725.377 384.616C724.225 384.616 723.649 384.392 723.649 383.944C723.649 383.496 724.353 382.76 725.761 381.736C726.529 381.16 727.329 380.616 728.161 380.104C730.145 379.336 731.393 378.056 731.905 376.264C732.097 375.56 732.193 374.952 732.193 374.44C732.193 371.24 730.369 367.592 726.721 363.496L725.569 362.44L724.513 361.864C723.297 361.224 721.441 360.584 718.945 359.944L715.297 359.368L714.721 359.656C712.417 361.192 710.977 363.208 710.401 365.704C709.825 368.136 709.313 370.536 708.865 372.904C708.609 370.728 708.289 368.52 707.905 366.28C707.585 363.976 706.625 362.184 705.025 360.904L703.489 359.656L700.897 360.136C693.601 361.48 687.969 365.48 684.001 372.136L683.809 372.616L683.425 375.016C683.297 375.784 683.233 376.264 683.233 376.456C683.233 377.928 684.161 378.984 686.017 379.624C687.553 380.2 689.121 380.744 690.721 381.256C691.809 381.896 692.353 382.632 692.353 383.464C692.353 383.848 692.065 384.136 691.489 384.328C690.337 384.328 688.929 384.296 687.265 384.232C685.665 384.232 684.641 384.232 684.193 384.232C683.681 384.296 682.881 384.328 681.793 384.328H681.025L681.121 386.536C682.081 392.296 685.185 397.288 690.433 401.512C695.681 405.736 701.921 408.104 709.153 408.616C709.153 408.616 709.857 408.616 711.265 408.616H712.321ZM715.105 356.776L718.273 356.68C720.001 356.616 721.985 356.552 724.225 356.488C723.969 354.76 721.473 348.648 716.737 338.152C712.001 327.656 709.153 321.928 708.193 320.968C707.361 321.544 704.577 327.016 699.841 337.384C696.065 345.704 693.345 352.008 691.681 356.296C693.985 356.488 697.729 356.584 702.913 356.584H703.393L705.025 355.624C706.369 354.6 707.265 353.128 707.713 351.208C708.097 349.032 708.481 346.888 708.865 344.776C709.249 346.888 709.633 349 710.017 351.112C710.465 353.16 711.361 354.728 712.705 355.816L713.953 356.584L715.105 356.776ZM801.624 345.448L802.872 344.968C808.888 341.96 811.96 337.096 812.088 330.376C812.216 324.936 810.296 320.68 806.328 317.608C802.744 314.792 798.168 313.384 792.6 313.384C788.696 313.384 784.984 313.736 781.464 314.44L780.984 314.536L781.08 315.976C781.4 320.52 786.168 327.976 795.384 338.344L796.92 340.072C797.112 338.536 797.368 336.52 797.688 334.024C798.008 336.072 798.584 339.016 799.416 342.856L799.608 343.048L801.624 345.448ZM806.328 349.864L806.904 350.824C808.248 352.808 811.192 357.16 815.736 363.88C817.016 360.744 818.072 357.032 818.904 352.744C818.968 352.424 819.64 348.104 820.92 339.784C818.04 344.392 814.008 347.496 808.824 349.096L806.328 349.864ZM791.352 382.216C797.112 382.216 802.488 379.816 807.48 375.016L809.688 372.904L807.768 369.928C804.76 365.32 802.328 361.736 800.472 359.176L798.84 356.968C798.584 358.312 798.2 360.264 797.688 362.824C797.176 360.136 796.632 357.448 796.056 354.76C795.16 352.584 792.888 350.888 789.24 349.672L791.448 348.424L790.584 347.656C788.536 345.544 785.176 342.056 780.504 337.192L780.984 377.128C780.984 379.048 781.464 380.424 782.424 381.256C783.128 381.896 786.104 382.216 791.352 382.216ZM840.984 385.768L835.896 384.904C834.04 384.584 829.944 384.424 823.608 384.424C822.84 384.424 821.688 384.52 820.152 384.712C818.616 384.904 817.464 385 816.696 385C816.12 385 815.544 384.296 814.968 382.888C813.88 380.264 812.472 377.544 810.744 374.728V374.632L810.648 374.728C805.4 381.384 798.968 384.808 791.352 385C788.344 385.064 785.432 384.936 782.616 384.616C779.8 384.296 777.688 384.136 776.28 384.136C774.872 384.136 772.792 384.296 770.04 384.616C767.352 384.872 765.304 385 763.896 385C763.448 385 763.224 384.84 763.224 384.52C763.224 384.392 763.32 384.168 763.512 383.848L763.704 383.464L765.144 382.984C766.808 382.408 768.088 381.832 768.984 381.256H769.08C770.104 380.36 770.712 377.736 770.904 373.384C770.904 373.64 770.904 370.888 770.904 365.128C770.904 337.288 770.776 321.512 770.52 317.8C770.328 314.984 769.336 313.352 767.544 312.904L766.776 312.712C766.328 312.52 765.592 312.264 764.568 311.944L763.704 311.656L763.608 311.176C763.48 310.92 763.416 310.696 763.416 310.504C763.416 310.184 763.576 310.024 763.896 310.024C765.304 310.024 767.352 310.12 770.04 310.312C772.792 310.44 774.872 310.504 776.28 310.504C782.104 310.504 786.456 310.44 789.336 310.312C793.688 310.12 796.92 310.024 799.032 310.024C805.944 310.024 811.704 312.008 816.312 315.976C820.92 319.88 823.192 324.968 823.128 331.24C823 343.912 820.952 355.496 816.984 365.992V366.088C822.424 373.832 825.688 378.312 826.776 379.528C827.8 380.488 832.024 381.704 839.448 383.176L840.888 383.464L841.272 384.136C841.4 384.52 841.464 384.744 841.464 384.808C841.464 385.064 841.368 385.288 841.176 385.48L840.984 385.768ZM864.824 390.856C864.44 388.936 864.056 387.048 863.672 385.192C863.352 383.336 862.712 381.896 861.752 380.872C860.6 379.592 858.712 378.504 856.088 377.608C857.752 377.608 858.904 376.744 859.544 375.016V316.456C858.904 314.728 857.784 313.864 856.184 313.864C859.704 312.712 861.976 311.112 863 309.064C863.256 308.552 863.832 306.152 864.728 301.864V301.672L864.44 300.136C863.672 295.976 863.16 293.64 862.904 293.128C861.88 290.696 859.704 288.744 856.376 287.272C860.024 286.056 862.296 284.36 863.192 282.184C863.768 279.496 864.312 276.808 864.824 274.12C865.4 276.808 865.944 279.496 866.456 282.184C867.416 284.488 869.784 286.248 873.56 287.464C870.232 288.936 867.992 290.856 866.84 293.224C866.456 294.056 865.944 296.36 865.304 300.136L865.016 301.192L865.208 301.864C865.784 304.232 866.36 306.6 866.936 308.968C867.896 311.016 870.136 312.648 873.656 313.864C871.864 313.864 870.648 314.728 870.008 316.456L870.296 375.592C870.808 376.936 871.896 377.608 873.56 377.608C869.848 378.888 867.512 380.648 866.552 382.888C865.976 385.576 865.4 388.232 864.824 390.856ZM829.855 420.616C829.215 420.616 827.679 420.552 825.247 420.424C814.495 419.848 804.255 417.256 794.527 412.648L791.167 410.152C804.479 416.424 817.151 419.56 829.183 419.56C851.583 419.56 873.055 408.008 893.599 384.904L893.983 384.616L890.815 384.808C890.495 384.808 890.335 384.424 890.335 383.656V383.08C891.231 382.248 892.287 381.704 893.503 381.448C894.591 380.936 895.839 380.136 897.247 379.048C900.511 375.784 907.007 366.632 916.735 351.592L918.847 348.328L918.655 347.848C917.439 346.632 915.615 345.448 913.183 344.296L915.967 343.144L914.047 340.168C909.567 333.192 904.063 324.904 897.535 315.304C896.447 314.152 895.583 313.192 894.943 312.424C893.279 311.976 892.383 311.08 892.255 309.736C892.319 309.096 892.543 308.776 892.927 308.776C894.207 308.776 896.127 308.872 898.687 309.064C901.311 309.256 903.263 309.352 904.543 309.352H917.887C918.143 309.608 918.271 309.896 918.271 310.216C918.271 310.984 917.631 311.56 916.351 311.944C912.511 312.52 910.719 313.544 910.975 315.016C911.359 317.256 914.943 323.784 921.727 334.6L922.591 329.704C922.783 330.472 923.071 332.136 923.455 334.696C923.775 336.488 924.127 337.832 924.511 338.728L924.991 339.304L940.639 316.648C940.895 316.264 941.023 315.976 941.023 315.784C941.023 314.504 938.975 313.416 934.879 312.52C933.727 312.328 932.863 312.2 932.287 312.136C930.943 311.56 930.271 310.984 930.271 310.408C930.271 310.024 930.719 309.64 931.615 309.256H944.095L947.551 308.776L951.487 303.4C960.319 291.368 968.575 282.344 976.255 276.328C985.471 269.224 994.783 265.672 1004.19 265.672C1007.45 265.672 1010.49 266.024 1013.31 266.728L1016.57 268.264C1012.86 267.24 1009.18 266.728 1005.53 266.728C986.655 266.728 968.255 280.168 950.335 307.048L949.375 308.488L951.967 308.104C952.351 308.936 952.543 309.384 952.543 309.448C952.543 309.768 952.383 310.248 952.063 310.888C950.527 311.72 949.439 312.264 948.799 312.52C948.159 312.776 947.327 313.64 946.303 315.112L928.543 340.072L927.103 342.088L929.215 343.336C929.791 343.656 930.815 344.072 932.287 344.584L929.215 346.312V346.408C941.311 364.904 948.479 375.56 950.719 378.376C952.063 379.72 953.023 380.584 953.599 380.968C955.199 382.12 956.447 382.952 957.343 383.464C957.343 383.528 957.375 383.784 957.439 384.232C957.439 384.744 957.183 385 956.671 385C955.263 385 953.567 384.872 951.583 384.616C950.111 384.424 948.191 384.328 945.823 384.328H927.967C927.583 384.008 927.391 383.656 927.391 383.272C927.391 383.016 927.519 382.728 927.775 382.408C928.031 382.088 928.191 381.928 928.255 381.928C929.535 381.736 930.879 381.448 932.287 381.064C935.807 380.104 937.471 379.144 937.279 378.184C936.895 376.328 933.791 370.856 927.967 361.768L923.839 355.336L922.591 361.192C922.399 360.424 922.175 358.824 921.919 356.392C921.727 354.472 921.439 352.968 921.055 351.88L920.863 351.496L908.671 369.064C906.431 372.264 904.895 375.016 904.063 377.32C903.999 377.448 903.967 377.64 903.967 377.896C903.967 379.24 905.951 380.36 909.919 381.256C912.095 381.768 914.175 382.088 916.159 382.216L917.407 382.312V384.328H896.479L894.943 386.152C876.511 408.04 856.351 419.464 834.463 420.424C831.647 420.552 830.111 420.616 829.855 420.616ZM1008.02 386.344C995.538 386.344 985.778 382.888 978.738 375.976C971.762 369.064 968.274 359.368 968.274 346.888C968.274 336.456 972.274 327.24 980.274 319.24C988.338 311.24 997.586 307.24 1008.02 307.24C1020.11 307.24 1029.75 310.824 1036.91 317.992C1044.08 325.16 1047.67 334.792 1047.67 346.888C1047.67 357.448 1043.7 366.664 1035.76 374.536C1027.83 382.408 1018.58 386.344 1008.02 386.344ZM993.618 314.824L992.466 315.208C990.482 315.848 988.882 316.648 987.666 317.608C980.882 321.768 977.49 328.84 977.49 338.824C977.49 349.448 980.946 359.08 987.858 367.72C994.898 376.552 1002.96 380.968 1012.05 380.968C1016.53 380.968 1020.85 379.784 1025.01 377.416C1032.95 372.872 1036.91 365.416 1036.91 355.048C1036.91 344.424 1033.55 334.888 1026.83 326.44C1019.54 317.416 1010.9 313.32 1000.91 314.152L1000.82 314.248C995.634 314.952 991.41 317.736 988.146 322.6C984.882 327.464 983.25 333.32 983.25 340.168C983.25 349.192 986.226 357.544 992.178 365.224C998.258 373.096 1004.98 377.032 1012.34 377.032C1017.71 377.032 1021.97 374.856 1025.11 370.504C1027.92 366.6 1029.33 361.832 1029.33 356.2C1029.33 353.832 1029.11 351.56 1028.66 349.384C1027.31 342.984 1024.56 337.672 1020.4 333.448C1016.24 329.224 1011.76 327.112 1006.96 327.112C1002.87 327.112 999.57 328.776 997.074 332.104C994.578 335.368 993.33 339.112 993.33 343.336C993.33 344.808 993.458 346.152 993.714 347.368C994.674 351.976 996.946 355.848 1000.53 358.984C1003.86 361.992 1007.38 363.496 1011.09 363.496C1013.59 363.496 1015.57 362.536 1017.04 360.616C1018.32 358.888 1018.96 356.712 1018.96 354.088C1018.96 351.08 1018.13 348.232 1016.47 345.544C1014.55 342.472 1012.21 340.776 1009.46 340.456H1008.79L1008.88 341.032C1009.78 343.272 1012.11 345.064 1015.89 346.408C1012.24 348.008 1009.94 350.184 1008.98 352.936C1008.4 355.688 1007.83 358.408 1007.25 361.096C1006.8 358.344 1006.35 355.592 1005.91 352.84C1004.88 350.024 1002.48 347.784 998.706 346.12C1002.42 344.84 1004.72 343.112 1005.62 340.936C1006.13 338.312 1006.67 335.656 1007.25 332.968C1007.31 333.288 1007.57 334.76 1008.02 337.384L1008.21 338.536H1009.75C1012.95 338.984 1015.63 340.872 1017.81 344.2C1019.86 347.208 1020.88 350.44 1020.88 353.896C1020.88 357.16 1020.05 359.848 1018.39 361.96C1016.66 364.264 1014.19 365.416 1010.99 365.416C1006.83 365.416 1002.87 363.72 999.09 360.328C995.314 356.936 992.914 352.744 991.89 347.752C991.57 346.216 991.41 344.712 991.41 343.24C991.41 338.44 992.786 334.28 995.538 330.76C998.546 326.984 1002.39 325.096 1007.06 325.096C1012.37 325.096 1017.23 327.4 1021.65 332.008C1026.13 336.552 1029.07 342.216 1030.48 349C1030.99 351.496 1031.25 353.864 1031.25 356.104C1031.25 361.992 1029.81 367.048 1026.93 371.272C1024.11 375.496 1020.37 377.96 1015.7 378.664C1014.87 378.792 1013.97 378.856 1013.01 378.856C1004.82 378.92 997.49 374.984 991.026 367.048C984.562 359.048 981.33 350.152 981.33 340.36C981.33 329.544 984.626 321.544 991.218 316.36L993.618 314.824ZM1148.22 385.192C1147.83 385.192 1146.46 384.968 1144.09 384.52C1142.87 384.456 1141.05 384.328 1138.62 384.136C1138.55 384.136 1138.39 384.136 1138.14 384.136C1137.95 384.2 1137.79 384.232 1137.66 384.232H1125.95C1125.88 384.232 1125.79 384.2 1125.66 384.136C1125.53 384.136 1125.43 384.136 1125.37 384.136C1124.92 384.136 1124.31 384.04 1123.55 383.848C1123.16 383.72 1122.97 383.4 1122.97 382.888C1122.97 382.568 1123 382.344 1123.07 382.216C1123.39 381.768 1124.09 381.512 1125.18 381.448C1128.19 381.32 1130.27 380.36 1131.42 378.568C1132.19 377.416 1132.57 374.952 1132.57 371.176V321.064L1111.74 368.008L1112.7 368.68C1113.85 369.192 1114.81 369.576 1115.58 369.832C1111.87 371.432 1109.53 373.672 1108.57 376.552C1107.99 379.304 1107.42 382.056 1106.84 384.808C1106.65 382.888 1106.2 380.072 1105.5 376.36L1104.73 374.728L1104.54 374.44L1103.19 372.808C1101.85 371.464 1100.19 370.376 1098.2 369.544C1098.91 369.288 1099.83 368.936 1100.99 368.488L1101.18 368.392L1075.07 321.064V371.176C1075.07 375.272 1075.55 377.896 1076.51 379.048C1077.21 379.944 1078.23 380.584 1079.58 380.968C1079.77 381.16 1080.19 381.32 1080.83 381.448C1081.53 381.512 1082.52 381.704 1083.8 382.024C1084.76 382.344 1085.24 382.856 1085.24 383.56C1085.24 383.88 1085.05 384.104 1084.67 384.232H1067.48C1067.03 384.232 1066.75 384.264 1066.62 384.328C1066.17 384.328 1065.79 384.36 1065.47 384.424C1065.21 384.424 1065.02 384.456 1064.89 384.52H1064.6C1063.19 384.776 1062.17 384.904 1061.53 384.904C1060.89 384.904 1060.51 384.776 1060.38 384.52C1060.25 384.264 1060.19 383.944 1060.19 383.56C1060.38 382.856 1060.92 382.376 1061.82 382.12C1062.78 381.864 1064.22 381.48 1066.14 380.968C1067.48 380.392 1068.54 379.56 1069.31 378.472C1070.07 377.32 1070.46 374.888 1070.46 371.176V322.216C1070.46 319.464 1070.07 317.32 1069.31 315.784C1068.73 314.632 1067.83 313.736 1066.62 313.096C1065.72 312.648 1064.44 312.328 1062.78 312.136C1062.14 312.136 1061.82 311.72 1061.82 310.888V310.504C1061.95 310.056 1062.27 309.608 1062.78 309.16C1063.8 308.904 1064.89 308.776 1066.04 308.776C1066.68 308.776 1067.61 308.84 1068.83 308.968C1070.11 309.096 1070.94 309.16 1071.32 309.16C1071.77 309.16 1072.63 309.064 1073.91 308.872C1075 308.744 1075.87 308.68 1076.51 308.68C1077.53 308.68 1078.43 308.808 1079.19 309.064C1079.45 309.064 1079.74 309.16 1080.06 309.352C1080.38 309.544 1080.76 309.928 1081.21 310.504L1105.21 364.264L1106.07 360.904C1106.33 358.984 1106.59 357.448 1106.84 356.296C1106.97 357.384 1107.23 358.888 1107.61 360.808L1108.38 364.168L1132.57 309.16C1132.7 308.84 1133.4 308.68 1134.68 308.68C1135.45 308.68 1136.79 308.776 1138.71 308.968C1140.7 309.096 1142.07 309.16 1142.84 309.16C1145.27 308.904 1147.13 308.776 1148.41 308.776C1150.14 308.776 1151.67 308.904 1153.02 309.16C1153.4 309.608 1153.59 310.088 1153.59 310.6C1153.59 311.048 1153.4 311.528 1153.02 312.04H1150.43C1147.23 312.04 1145.05 312.968 1143.9 314.824C1143.13 316.04 1142.75 318.504 1142.75 322.216V371.176C1142.75 375.272 1143.23 377.896 1144.19 379.048C1144.63 379.56 1145.24 380.04 1146.01 380.488C1146.2 380.488 1146.46 380.552 1146.78 380.68C1147.35 380.872 1148.22 381.032 1149.37 381.16C1149.43 381.16 1149.5 381.16 1149.56 381.16C1149.63 381.224 1149.69 381.256 1149.75 381.256C1151.1 381.448 1151.77 381.992 1151.77 382.888C1151.77 384.36 1151.07 385.096 1149.66 385.096C1149.21 385.16 1148.73 385.192 1148.22 385.192Z" fill="#F778BD"/>
</svg>
