<svg width="25" height="24" viewBox="0 0 25 24" fill="none" xmlns="http://www.w3.org/2000/svg">
<path d="M18.75 8.4C18.75 6.70261 18.1179 5.07475 16.9926 3.87452C15.8674 2.67428 14.3413 2 12.75 2C11.1587 2 9.63258 2.67428 8.50736 3.87452C7.38214 5.07475 6.75 6.70261 6.75 8.4C6.75 15.8667 3.75 18 3.75 18H21.75C21.75 18 18.75 15.8667 18.75 8.4Z" stroke="white" stroke-width="1.5" stroke-linecap="round" stroke-linejoin="round"/>
<path d="M14.48 21C14.3042 21.3031 14.0519 21.5547 13.7482 21.7295C13.4446 21.9044 13.1004 21.9965 12.75 21.9965C12.3996 21.9965 12.0554 21.9044 11.7518 21.7295C11.4482 21.5547 11.1958 21.3031 11.02 21" stroke="white" stroke-width="1.5" stroke-linecap="round" stroke-linejoin="round"/>
</svg>
