<svg width="1920" height="806" viewBox="0 0 1920 806" fill="none" xmlns="http://www.w3.org/2000/svg">
<rect width="1920" height="806" fill="#C3C3C3"/>
<path d="M770.216 394H764.58C764.246 392.379 763.663 390.955 762.83 389.727C762.011 388.5 761.011 387.47 759.83 386.636C758.663 385.788 757.367 385.152 755.943 384.727C754.519 384.303 753.034 384.091 751.489 384.091C748.67 384.091 746.117 384.803 743.83 386.227C741.557 387.652 739.746 389.75 738.398 392.523C737.064 395.295 736.398 398.697 736.398 402.727C736.398 406.758 737.064 410.159 738.398 412.932C739.746 415.705 741.557 417.803 743.83 419.227C746.117 420.652 748.67 421.364 751.489 421.364C753.034 421.364 754.519 421.152 755.943 420.727C757.367 420.303 758.663 419.674 759.83 418.841C761.011 417.992 762.011 416.955 762.83 415.727C763.663 414.485 764.246 413.061 764.58 411.455H770.216C769.792 413.833 769.019 415.962 767.898 417.841C766.777 419.72 765.383 421.318 763.716 422.636C762.049 423.939 760.178 424.932 758.102 425.614C756.042 426.295 753.837 426.636 751.489 426.636C747.519 426.636 743.989 425.667 740.898 423.727C737.807 421.788 735.375 419.03 733.602 415.455C731.83 411.879 730.943 407.636 730.943 402.727C730.943 397.818 731.83 393.576 733.602 390C735.375 386.424 737.807 383.667 740.898 381.727C743.989 379.788 747.519 378.818 751.489 378.818C753.837 378.818 756.042 379.159 758.102 379.841C760.178 380.523 762.049 381.523 763.716 382.841C765.383 384.144 766.777 385.735 767.898 387.614C769.019 389.477 769.792 391.606 770.216 394ZM783.96 405V426H778.597V379.455H783.96V396.545H784.415C785.233 394.742 786.46 393.311 788.097 392.25C789.748 391.174 791.945 390.636 794.688 390.636C797.066 390.636 799.15 391.114 800.938 392.068C802.725 393.008 804.112 394.455 805.097 396.409C806.097 398.348 806.597 400.818 806.597 403.818V426H801.233V404.182C801.233 401.409 800.513 399.265 799.074 397.75C797.65 396.22 795.672 395.455 793.142 395.455C791.384 395.455 789.809 395.826 788.415 396.568C787.036 397.311 785.945 398.394 785.142 399.818C784.354 401.242 783.96 402.97 783.96 405ZM826.682 426.818C824.47 426.818 822.462 426.402 820.659 425.568C818.856 424.72 817.424 423.5 816.364 421.909C815.303 420.303 814.773 418.364 814.773 416.091C814.773 414.091 815.167 412.47 815.955 411.227C816.742 409.97 817.795 408.985 819.114 408.273C820.432 407.561 821.886 407.03 823.477 406.682C825.083 406.318 826.697 406.03 828.318 405.818C830.439 405.545 832.159 405.341 833.477 405.205C834.811 405.053 835.78 404.803 836.386 404.455C837.008 404.106 837.318 403.5 837.318 402.636V402.455C837.318 400.212 836.705 398.47 835.477 397.227C834.265 395.985 832.424 395.364 829.955 395.364C827.394 395.364 825.386 395.924 823.932 397.045C822.477 398.167 821.455 399.364 820.864 400.636L815.773 398.818C816.682 396.697 817.894 395.045 819.409 393.864C820.939 392.667 822.606 391.833 824.409 391.364C826.227 390.879 828.015 390.636 829.773 390.636C830.894 390.636 832.182 390.773 833.636 391.045C835.106 391.303 836.523 391.841 837.886 392.659C839.265 393.477 840.409 394.712 841.318 396.364C842.227 398.015 842.682 400.227 842.682 403V426H837.318V421.273H837.045C836.682 422.03 836.076 422.841 835.227 423.705C834.379 424.568 833.25 425.303 831.841 425.909C830.432 426.515 828.712 426.818 826.682 426.818ZM827.5 422C829.621 422 831.409 421.583 832.864 420.75C834.333 419.917 835.439 418.841 836.182 417.523C836.939 416.205 837.318 414.818 837.318 413.364V408.455C837.091 408.727 836.591 408.977 835.818 409.205C835.061 409.417 834.182 409.606 833.182 409.773C832.197 409.924 831.235 410.061 830.295 410.182C829.371 410.288 828.621 410.379 828.045 410.455C826.652 410.636 825.348 410.932 824.136 411.341C822.939 411.735 821.97 412.333 821.227 413.136C820.5 413.924 820.136 415 820.136 416.364C820.136 418.227 820.826 419.636 822.205 420.591C823.598 421.53 825.364 422 827.5 422ZM857.835 405V426H852.472V391.091H857.653V396.545H858.108C858.926 394.773 860.169 393.348 861.835 392.273C863.502 391.182 865.653 390.636 868.29 390.636C870.653 390.636 872.722 391.121 874.494 392.091C876.267 393.045 877.646 394.5 878.631 396.455C879.616 398.394 880.108 400.848 880.108 403.818V426H874.744V404.182C874.744 401.439 874.032 399.303 872.608 397.773C871.184 396.227 869.229 395.455 866.744 395.455C865.032 395.455 863.502 395.826 862.153 396.568C860.82 397.311 859.767 398.394 858.994 399.818C858.222 401.242 857.835 402.97 857.835 405ZM904 439.818C901.409 439.818 899.182 439.485 897.318 438.818C895.455 438.167 893.902 437.303 892.659 436.227C891.432 435.167 890.455 434.03 889.727 432.818L894 429.818C894.485 430.455 895.098 431.182 895.841 432C896.583 432.833 897.598 433.553 898.886 434.159C900.189 434.78 901.894 435.091 904 435.091C906.818 435.091 909.144 434.409 910.977 433.045C912.811 431.682 913.727 429.545 913.727 426.636V419.545H913.273C912.879 420.182 912.318 420.97 911.591 421.909C910.879 422.833 909.848 423.659 908.5 424.386C907.167 425.098 905.364 425.455 903.091 425.455C900.273 425.455 897.742 424.788 895.5 423.455C893.273 422.121 891.508 420.182 890.205 417.636C888.917 415.091 888.273 412 888.273 408.364C888.273 404.788 888.902 401.674 890.159 399.023C891.417 396.356 893.167 394.295 895.409 392.841C897.652 391.371 900.242 390.636 903.182 390.636C905.455 390.636 907.258 391.015 908.591 391.773C909.939 392.515 910.97 393.364 911.682 394.318C912.409 395.258 912.97 396.03 913.364 396.636H913.909V391.091H919.091V427C919.091 430 918.409 432.439 917.045 434.318C915.697 436.212 913.879 437.598 911.591 438.477C909.318 439.371 906.788 439.818 904 439.818ZM903.818 420.636C905.97 420.636 907.788 420.144 909.273 419.159C910.758 418.174 911.886 416.758 912.659 414.909C913.432 413.061 913.818 410.848 913.818 408.273C913.818 405.758 913.439 403.538 912.682 401.614C911.924 399.689 910.803 398.182 909.318 397.091C907.833 396 906 395.455 903.818 395.455C901.545 395.455 899.652 396.03 898.136 397.182C896.636 398.333 895.508 399.879 894.75 401.818C894.008 403.758 893.636 405.909 893.636 408.273C893.636 410.697 894.015 412.841 894.773 414.705C895.545 416.553 896.682 418.008 898.182 419.068C899.697 420.114 901.576 420.636 903.818 420.636ZM943.545 426.727C940.182 426.727 937.28 425.985 934.841 424.5C932.417 423 930.545 420.909 929.227 418.227C927.924 415.53 927.273 412.394 927.273 408.818C927.273 405.242 927.924 402.091 929.227 399.364C930.545 396.621 932.379 394.485 934.727 392.955C937.091 391.409 939.848 390.636 943 390.636C944.818 390.636 946.614 390.939 948.386 391.545C950.159 392.152 951.773 393.136 953.227 394.5C954.682 395.848 955.841 397.636 956.705 399.864C957.568 402.091 958 404.833 958 408.091V410.364H931.091V405.727H952.545C952.545 403.758 952.152 402 951.364 400.455C950.591 398.909 949.485 397.689 948.045 396.795C946.621 395.902 944.939 395.455 943 395.455C940.864 395.455 939.015 395.985 937.455 397.045C935.909 398.091 934.72 399.455 933.886 401.136C933.053 402.818 932.636 404.621 932.636 406.545V409.636C932.636 412.273 933.091 414.508 934 416.341C934.924 418.159 936.205 419.545 937.841 420.5C939.477 421.439 941.379 421.909 943.545 421.909C944.955 421.909 946.227 421.712 947.364 421.318C948.515 420.909 949.508 420.303 950.341 419.5C951.174 418.682 951.818 417.667 952.273 416.455L957.455 417.909C956.909 419.667 955.992 421.212 954.705 422.545C953.417 423.864 951.826 424.894 949.932 425.636C948.038 426.364 945.909 426.727 943.545 426.727ZM984.886 426V379.455H1001.16C1004.4 379.455 1007.08 380.015 1009.18 381.136C1011.29 382.242 1012.86 383.735 1013.89 385.614C1014.92 387.477 1015.43 389.545 1015.43 391.818C1015.43 393.818 1015.08 395.47 1014.36 396.773C1013.67 398.076 1012.74 399.106 1011.59 399.864C1010.45 400.621 1009.22 401.182 1007.89 401.545V402C1009.31 402.091 1010.74 402.591 1012.18 403.5C1013.62 404.409 1014.83 405.712 1015.8 407.409C1016.77 409.106 1017.25 411.182 1017.25 413.636C1017.25 415.97 1016.72 418.068 1015.66 419.932C1014.6 421.795 1012.92 423.273 1010.64 424.364C1008.35 425.455 1005.37 426 1001.7 426H984.886ZM990.523 421H1001.7C1005.39 421 1008 420.288 1009.55 418.864C1011.11 417.424 1011.89 415.682 1011.89 413.636C1011.89 412.061 1011.48 410.606 1010.68 409.273C1009.88 407.924 1008.73 406.848 1007.25 406.045C1005.77 405.227 1004.01 404.818 1001.98 404.818H990.523V421ZM990.523 399.909H1000.98C1002.67 399.909 1004.2 399.576 1005.57 398.909C1006.95 398.242 1008.04 397.303 1008.84 396.091C1009.66 394.879 1010.07 393.455 1010.07 391.818C1010.07 389.773 1009.36 388.038 1007.93 386.614C1006.51 385.174 1004.25 384.455 1001.16 384.455H990.523V399.909ZM1036.06 426.818C1033.84 426.818 1031.84 426.402 1030.03 425.568C1028.23 424.72 1026.8 423.5 1025.74 421.909C1024.68 420.303 1024.15 418.364 1024.15 416.091C1024.15 414.091 1024.54 412.47 1025.33 411.227C1026.12 409.97 1027.17 408.985 1028.49 408.273C1029.81 407.561 1031.26 407.03 1032.85 406.682C1034.46 406.318 1036.07 406.03 1037.69 405.818C1039.81 405.545 1041.53 405.341 1042.85 405.205C1044.19 405.053 1045.16 404.803 1045.76 404.455C1046.38 404.106 1046.69 403.5 1046.69 402.636V402.455C1046.69 400.212 1046.08 398.47 1044.85 397.227C1043.64 395.985 1041.8 395.364 1039.33 395.364C1036.77 395.364 1034.76 395.924 1033.31 397.045C1031.85 398.167 1030.83 399.364 1030.24 400.636L1025.15 398.818C1026.06 396.697 1027.27 395.045 1028.78 393.864C1030.31 392.667 1031.98 391.833 1033.78 391.364C1035.6 390.879 1037.39 390.636 1039.15 390.636C1040.27 390.636 1041.56 390.773 1043.01 391.045C1044.48 391.303 1045.9 391.841 1047.26 392.659C1048.64 393.477 1049.78 394.712 1050.69 396.364C1051.6 398.015 1052.06 400.227 1052.06 403V426H1046.69V421.273H1046.42C1046.06 422.03 1045.45 422.841 1044.6 423.705C1043.75 424.568 1042.63 425.303 1041.22 425.909C1039.81 426.515 1038.09 426.818 1036.06 426.818ZM1036.88 422C1039 422 1040.78 421.583 1042.24 420.75C1043.71 419.917 1044.81 418.841 1045.56 417.523C1046.31 416.205 1046.69 414.818 1046.69 413.364V408.455C1046.47 408.727 1045.97 408.977 1045.19 409.205C1044.44 409.417 1043.56 409.606 1042.56 409.773C1041.57 409.924 1040.61 410.061 1039.67 410.182C1038.75 410.288 1038 410.379 1037.42 410.455C1036.03 410.636 1034.72 410.932 1033.51 411.341C1032.31 411.735 1031.34 412.333 1030.6 413.136C1029.88 413.924 1029.51 415 1029.51 416.364C1029.51 418.227 1030.2 419.636 1031.58 420.591C1032.97 421.53 1034.74 422 1036.88 422ZM1067.21 405V426H1061.85V391.091H1067.03V396.545H1067.48C1068.3 394.773 1069.54 393.348 1071.21 392.273C1072.88 391.182 1075.03 390.636 1077.66 390.636C1080.03 390.636 1082.1 391.121 1083.87 392.091C1085.64 393.045 1087.02 394.5 1088.01 396.455C1088.99 398.394 1089.48 400.848 1089.48 403.818V426H1084.12V404.182C1084.12 401.439 1083.41 399.303 1081.98 397.773C1080.56 396.227 1078.6 395.455 1076.12 395.455C1074.41 395.455 1072.88 395.826 1071.53 396.568C1070.2 397.311 1069.14 398.394 1068.37 399.818C1067.6 401.242 1067.21 402.97 1067.21 405ZM1104.65 405V426H1099.28V391.091H1104.47V396.545H1104.92C1105.74 394.773 1106.98 393.348 1108.65 392.273C1110.31 391.182 1112.47 390.636 1115.1 390.636C1117.47 390.636 1119.53 391.121 1121.31 392.091C1123.08 393.045 1124.46 394.5 1125.44 396.455C1126.43 398.394 1126.92 400.848 1126.92 403.818V426H1121.56V404.182C1121.56 401.439 1120.84 399.303 1119.42 397.773C1118 396.227 1116.04 395.455 1113.56 395.455C1111.84 395.455 1110.31 395.826 1108.97 396.568C1107.63 397.311 1106.58 398.394 1105.81 399.818C1105.03 401.242 1104.65 402.97 1104.65 405ZM1151.36 426.727C1147.99 426.727 1145.09 425.985 1142.65 424.5C1140.23 423 1138.36 420.909 1137.04 418.227C1135.74 415.53 1135.09 412.394 1135.09 408.818C1135.09 405.242 1135.74 402.091 1137.04 399.364C1138.36 396.621 1140.19 394.485 1142.54 392.955C1144.9 391.409 1147.66 390.636 1150.81 390.636C1152.63 390.636 1154.43 390.939 1156.2 391.545C1157.97 392.152 1159.59 393.136 1161.04 394.5C1162.49 395.848 1163.65 397.636 1164.52 399.864C1165.38 402.091 1165.81 404.833 1165.81 408.091V410.364H1138.9V405.727H1160.36C1160.36 403.758 1159.96 402 1159.18 400.455C1158.4 398.909 1157.3 397.689 1155.86 396.795C1154.43 395.902 1152.75 395.455 1150.81 395.455C1148.68 395.455 1146.83 395.985 1145.27 397.045C1143.72 398.091 1142.53 399.455 1141.7 401.136C1140.87 402.818 1140.45 404.621 1140.45 406.545V409.636C1140.45 412.273 1140.9 414.508 1141.81 416.341C1142.74 418.159 1144.02 419.545 1145.65 420.5C1147.29 421.439 1149.19 421.909 1151.36 421.909C1152.77 421.909 1154.04 421.712 1155.18 421.318C1156.33 420.909 1157.32 420.303 1158.15 419.5C1158.99 418.682 1159.63 417.667 1160.09 416.455L1165.27 417.909C1164.72 419.667 1163.8 421.212 1162.52 422.545C1161.23 423.864 1159.64 424.894 1157.74 425.636C1155.85 426.364 1153.72 426.727 1151.36 426.727ZM1173.97 426V391.091H1179.15V396.364H1179.52C1180.15 394.636 1181.3 393.235 1182.97 392.159C1184.64 391.083 1186.52 390.545 1188.61 390.545C1189 390.545 1189.49 390.553 1190.09 390.568C1190.68 390.583 1191.12 390.606 1191.43 390.636V396.091C1191.24 396.045 1190.83 395.977 1190.18 395.886C1189.54 395.78 1188.87 395.727 1188.15 395.727C1186.46 395.727 1184.94 396.083 1183.61 396.795C1182.29 397.492 1181.24 398.462 1180.47 399.705C1179.71 400.932 1179.34 402.333 1179.34 403.909V426H1173.97Z" fill="#F778BD"/>
</svg>
