<svg width="722" height="721" viewBox="0 0 722 721" fill="none" xmlns="http://www.w3.org/2000/svg">
<rect x="29.9253" y="32" width="670.224" height="648" rx="35" fill="#B9B9B9"/>
<path d="M638.812 684.088C632.231 683.486 641.308 701.721 634.623 703.177C627.963 704.582 621.013 696.542 616.731 702.467C612.303 708.474 602.523 706.205 602.408 711.477C602.286 715.664 597.626 709.744 594.731 709.408C594.371 709.844 592.697 710.349 592.267 710.718C591.501 710.509 590.821 710.695 590.225 711.614C587.441 715.967 584.351 715.388 579.295 712.835C574.278 710.292 562.207 711.117 560.921 717.441C560.761 718.258 560.513 718.852 560.219 719.257C559.951 719.502 558.841 719.684 558.54 719.886C555.44 721.575 553.72 720.324 552.034 718.875C550.363 717.387 548.458 715.609 547.103 715.097C546.146 714.724 545.217 714.103 544.382 713.41C544.029 713.116 543.6 712.373 543.272 711.6C543.272 711.599 543.272 711.599 543.272 711.598C542.862 710.635 542.618 709.621 542.846 709.383C543.973 708.232 545.347 705.866 547.38 701.465C549.767 696.541 551.487 697.473 552.197 698.059L550.67 698.631C552.247 698.476 553.948 698.141 555.765 695.828C560.307 690.046 560.955 681.997 569.34 683.626C574.656 684.643 574.183 677.517 576.501 673.736L572.873 675.666C573.878 673.226 575.998 671.768 581.308 673.194C595.782 676.964 585.095 659.347 591.093 651.654C597.115 643.916 613.752 645.263 617.917 640.694C622.005 636.206 626.731 629.239 635.063 625.796C643.419 622.341 647.095 610.191 657.465 607.617C667.866 605.03 682.09 600.677 689.539 599.556C696.972 598.454 698.738 598.122 701.608 592.214C703.362 588.723 707.668 586.698 714.319 587.849C717.653 588.44 719.776 591.52 719.396 594.245C718.844 598.224 715.859 598.565 717.805 603.044C721.727 611.967 722.976 615.617 716.485 614.171C710.029 612.693 716.706 623.155 714.052 623.621C711.394 624.083 706.652 618.647 701.596 630.508C696.445 642.438 692.538 647.687 690.002 651.643C687.54 655.537 676.356 656.859 672.258 663.269C668.15 669.722 655.403 677.552 652.948 684.248C650.544 690.923 645.451 684.627 638.812 684.088Z" fill="#E8E8E8" fill-opacity="0.75"/>
<path d="M98.0166 50.6134C103.223 51.6377 98.3389 39.167 99.5459 34.558C99.9227 33.504 100.581 32.7852 101.672 32.5919C108.064 31.4162 115.048 39.4489 118.992 33.579C122.897 27.7414 132.419 29.6099 131.935 24.4412C131.369 19.3333 139.871 29.4269 141.001 24.6724C142.02 19.9657 144.564 19.9661 149.865 20.7057C152.312 21.0521 155.723 20.1281 158.488 18.1391L157.7 19.2834C159.586 17.693 160.617 14.8664 160.419 11.7784C160.358 10.95 160.178 10.1558 159.849 9.41531C157.06 2.89751 167.369 2.79689 170.58 1.18751C171.579 0.69789 172.721 0.475833 173.817 0.430795C174.283 0.408411 175.093 0.692586 175.845 1.06853C175.845 1.06878 175.846 1.06902 175.846 1.06926C176.782 1.53711 177.628 2.14697 177.615 2.46732C177.56 4.01418 178.118 6.682 180.408 10.5973C184.207 16.9676 178.969 15.5058 178.424 19.4725C178.359 20.0097 178.384 20.662 178.513 21.5126C178.978 24.3637 179.71 28.1195 179.474 31.7922C179.07 32.1675 178.39 33.7295 177.93 34.0338C177.503 38.2604 175.875 42.241 170.21 43.9112C160.976 46.2054 171.801 62.7464 156.004 60.9344C140.627 58.6308 152.061 75.697 145.127 84.1872C143.533 86.1303 141.449 87.5139 139.031 88.6194C130.01 93.0005 118.225 92.7055 114.245 96.0127C109.015 100.365 102.492 106.969 93.052 109.097C83.6411 111.224 76.9408 122.537 65.7476 122.863C54.6373 123.163 39.3587 123.988 31.7558 123.185C24.1439 122.39 22.359 122.239 17.8664 127.244C15.3361 130.094 10.3054 131.048 4.25048 128.11C1.18156 126.642 -0.00810552 123.094 1.11515 120.57C2.75073 116.882 5.71555 117.361 5.12455 112.486C3.87922 102.774 3.47496 99.0116 9.43312 102.089C15.3232 105.197 11.6496 93.3361 14.2877 93.602C16.9952 93.828 20.1838 100.342 28.1802 90.0921C36.1191 79.8543 41.0542 75.6901 44.3563 72.4673C47.6219 69.2654 58.6204 70.5646 63.7442 65.169C68.8694 59.8325 82.1274 54.5869 84.8094 48.4985C87.4706 42.4674 91.7634 49.3175 98.0166 50.6134Z" fill="#E8E8E8" fill-opacity="0.75"/>
</svg>
