<svg width="68" height="68" viewBox="0 0 68 68" fill="none" xmlns="http://www.w3.org/2000/svg">
<circle cx="34.3637" cy="34.3637" r="33.6362" fill="black"/>
<path d="M36.6084 15.1211C33.7996 15.1211 32.0278 15.7504 30.9854 17.1396C29.962 18.5036 29.7031 20.528 29.7031 23.1406V28.167C29.7031 28.4852 29.6586 28.6944 29.5146 28.8398C29.427 28.9269 29.3232 28.9958 29.209 29.043C29.0942 29.0904 28.9709 29.1154 28.8467 29.1152H25.041V34.2207H28.8467C29.3431 34.2207 29.7058 34.6144 29.7061 35.166V52.959H35.0264V52.6592L35.0283 35.165C35.0288 34.9141 35.1291 34.6734 35.3066 34.4961C35.4843 34.3187 35.7255 34.2187 35.9766 34.2188H41.9668V29.1123H35.9717C35.8474 29.1123 35.7242 29.0877 35.6094 29.04C35.4947 28.9924 35.3905 28.9229 35.3027 28.835C35.2149 28.747 35.1451 28.6423 35.0977 28.5273C35.0503 28.4125 35.0261 28.2892 35.0264 28.165L35.0352 23.7432V23.7422C35.0352 22.7332 35.1166 21.829 35.584 21.1719C36.0332 20.5404 36.8976 20.065 38.6523 20.0635L41.5732 20.1758L41.8857 20.1875L41.8848 19.875L41.8828 15.4209V15.1211H36.6084ZM23.3096 28.1494L23.3066 28.1299C23.2916 28.0176 23.3026 27.9032 23.3389 27.7959C23.3751 27.6887 23.4357 27.5908 23.5156 27.5107C23.5958 27.4305 23.6943 27.3694 23.8018 27.333C23.9091 27.2968 24.0235 27.2858 24.1357 27.3008L24.1553 27.3037H27.9736V23.1436C27.9736 20.4924 28.2308 18.0206 29.4209 16.2217C30.5911 14.4528 32.7109 13.2706 36.6074 13.3096H42.8525L42.873 13.3066C42.9851 13.2916 43.099 13.3027 43.2061 13.3389C43.3132 13.3752 43.4112 13.4355 43.4912 13.5156C43.5712 13.5958 43.6319 13.6935 43.668 13.8008C43.7041 13.9081 43.7145 14.0226 43.6992 14.1348L43.6963 14.1553V21.208L43.7051 21.2422C43.7555 21.4526 43.6754 21.6719 43.4863 21.8555C43.4268 21.9131 43.3481 21.9468 43.2168 21.9707C43.1489 21.9831 43.0789 21.9912 42.9922 22.002C42.922 22.0106 42.8432 22.0229 42.7617 22.0391H38.6289C38.4605 22.0291 38.3128 22.0164 38.1807 22.0049C38.0506 21.9936 37.9301 21.9833 37.8252 21.9775C37.6301 21.9668 37.4094 21.9656 37.2236 22.0723C37.02 22.1893 36.9261 22.3914 36.8662 22.5996C36.8063 22.808 36.7616 23.0943 36.7061 23.46L36.7021 23.4814V23.5039L36.6953 27.0029L36.6943 27.3037H42.8525L42.873 27.3008C42.9853 27.2859 43.0997 27.2967 43.207 27.333C43.3144 27.3694 43.412 27.4306 43.4922 27.5107C43.5722 27.5909 43.6326 27.6886 43.6689 27.7959C43.7052 27.9033 43.7162 28.0176 43.7012 28.1299L43.6992 28.1494V35.1865L43.7012 35.2061C43.7162 35.3184 43.7052 35.4327 43.6689 35.54C43.6326 35.6473 43.5722 35.7451 43.4922 35.8252C43.412 35.9053 43.3144 35.9666 43.207 36.0029C43.0997 36.0392 42.9853 36.0501 42.873 36.0352L42.8525 36.0322H36.7021V36.333L36.6973 53.8252V53.8721L36.7119 53.916C36.7893 54.1588 36.7277 54.358 36.6035 54.4932C36.4748 54.6331 36.2608 54.7227 36.0059 54.6934L35.9883 54.6914H28.8271L28.8086 54.6943C28.6957 54.7089 28.5805 54.6968 28.4727 54.6602C28.3649 54.6236 28.2672 54.5626 28.1865 54.4824C28.1058 54.4022 28.0441 54.3048 28.0068 54.1973C27.9696 54.0896 27.9578 53.9744 27.9717 53.8613L27.9736 53.8438V36.0322H24.1553L24.1357 36.0352C24.0235 36.0502 23.9091 36.0392 23.8018 36.0029C23.6943 35.9666 23.5958 35.9054 23.5156 35.8252C23.4357 35.7451 23.3751 35.6473 23.3389 35.54C23.3026 35.4327 23.2916 35.3183 23.3066 35.2061L23.3096 35.1865V28.1494Z" fill="white" stroke="black" stroke-width="0.6"/>
</svg>
