<svg width="1920" height="817" viewBox="0 0 1920 817" fill="none" xmlns="http://www.w3.org/2000/svg">
<rect x="-24" width="1943.85" height="817" fill="#FFAFEE"/>
<path d="M-41.1512 227.398C-45.8541 233.34 -50.828 239.578 -52.2649 241.554C-52.6099 242.001 -52.6956 242.091 -52.5274 241.688C-52.372 241.313 -51.9338 240.331 -51.6496 239.444C-51.3684 238.588 -51.3219 237.978 -52.1528 239.876C-52.9639 241.682 -54.6878 246.291 -57.2875 252.15C-54.2987 243.699 -55.0805 238.015 -55.8653 241.47C-56.777 244.559 -57.2411 255.223 -59.9834 270.205C-60.6691 273.861 -61.4907 276.882 -62.3118 279.249C-63.8623 277.007 -67.8767 277.371 -68.6075 275.652C-70.4573 271.982 -68.6279 270.168 -71.3871 269.978C-72.3102 270.032 -79.5518 274.296 -80.1616 274.613C-80.6868 274.931 -81.0726 275.084 -81.9635 274.559C-84.6008 272.12 -87.7454 270.17 -89.1647 269.575C-90.6456 268.926 -90.4097 269.274 -88.7049 269.834C-85.2631 271.052 -76.8145 272.819 -66.9533 275.07C-66.935 275.075 -66.9167 275.079 -66.8984 275.083C-58.3169 278.967 -30.3326 277.231 -2.31459 273.43C31.1927 269.444 63.7811 260.855 97.7814 248.104C108.67 245.452 125.506 230.382 142.143 207.25C148.732 199.07 155.315 184.233 169.14 162.381C179.314 146.77 192.086 132.299 205.734 120.409C224.891 103.602 247.324 91.4983 268.693 81.7209C300.677 67.3817 328.219 59.5268 353.548 48.2993C358.648 46.0757 353.081 40.2274 353.876 39.3024C361.625 30.546 364.533 33.1563 368.066 36.0956C370.367 37.9347 372.91 39.9162 377.221 39.295C421.119 32.7922 468.781 22.4188 507.736 12.4053C508.842 12.1064 509.801 11.7703 510.56 11.4194C526.159 6.15508 506.107 -3.44635 528.556 1.67854C530.104 2.1036 525.365 10.3615 531.263 10.7031C543.984 11.3709 563.852 10.4781 572.946 11.1284C573.952 11.1755 574.89 11.2435 575.755 11.326C604.77 16.0708 606.208 19.1292 623.931 27.2532C637.796 34.5554 649.844 44.3373 661.571 53.534C670.092 60.1507 678.53 67.2986 686.859 74.7201C691.451 78.8987 691.419 67.1485 699.519 73.8666C708.026 80.089 724.069 106.131 725.477 116.842C727.451 127.068 719.832 125.087 719.097 127.205C715.975 134.929 718.82 143.826 722.182 152.555C726.227 162.078 731.595 172.142 731.806 174.378C734.696 202.141 727.859 233.898 705.745 259.131C687.464 279.634 662.956 297.945 651.324 309.236C646.26 314.873 641.423 319.597 636.972 323.985C625.846 334.841 616.228 344.326 606.73 354.572C587.788 374.338 570.073 390.75 553.924 405.185C553.25 405.785 552.556 406.404 551.913 406.978C538.471 418.928 523.671 431.782 506.797 442.829C492.521 451.668 476.806 466.163 456.745 482.663C453.844 485.015 458.894 487.717 459.676 490.556C460.016 491.471 459.929 492.341 459.018 493.095C444.544 504.98 433.998 515.7 416.54 532.501C414.808 534.013 414.233 534.752 413.966 534.836C413.82 534.914 413.7 534.879 413.451 535.265C413.201 535.682 412.853 536.437 412.287 538.93C409.763 545.878 410.836 558.835 416.077 570.334C417.292 573.023 408.312 574.919 409.403 578.182C409.917 579.595 410.465 581.005 410.851 582.163C408.534 580.572 407.333 580.667 407.109 581.054C406.865 581.469 407.447 582.233 408.428 582.993C410.428 584.548 413.919 586.127 417.79 587.396C425.634 589.963 435.101 591.485 444.402 591.721C462.067 592.126 478.779 585.551 486.402 567.973C502.942 567.772 522.638 566.516 540.495 567.522C545.885 567.927 551.059 568.492 555.968 569.352C568.852 571.402 559.147 582.872 573.296 575.541C576.453 573.846 570.154 567.319 574.931 565.356C590.671 558.829 608.931 553.614 626.041 545.673C630.29 543.67 634.531 541.383 638.575 538.801C642.456 536.294 638.594 530.22 639.289 528.553C645.114 514.999 668.642 523.19 672.9 522.595C685.105 520.955 695.463 517.908 704.936 514.106C720.023 508.053 730.14 501.068 742.698 491.833C747.469 488.299 736.176 484.941 740.448 481.306C744.884 477.521 749.519 473.449 754.334 469.212C773.512 452.308 793.734 434.435 814.446 418.326C820.23 413.838 821.315 424.271 824.368 422.42C837.859 414.028 829.173 400.979 841.732 392.589C844.349 390.814 848.185 396.846 849.127 396.96C863.951 398.701 856.94 381.377 858.189 379.488C861.851 373.856 865.908 369.486 870.331 365.685C885.258 352.87 903.578 347.66 916.739 330.039C918.761 327.299 907.128 327.151 913.206 319.811C952.62 272.173 997.455 224.071 1045.11 182.963C1046.4 181.85 1047.68 180.756 1048.95 179.679C1056.61 173.187 1056.47 182.901 1057.49 183.005C1073.68 184.419 1066 167.939 1067.86 165.123C1082.66 143.365 1109.71 137.268 1109.38 110.369C1124.02 98.7871 1138.91 87.2297 1153.87 76.2224C1173.69 61.5565 1195.22 46.6241 1217.75 34.4538C1256.63 10.746 1313.44 -1.65762 1355.51 1.39569C1378.72 1.81008 1402.04 4.46656 1424.89 10.5775C1426.29 10.9358 1422.9 19.0016 1425.64 19.6795C1457.23 28.4995 1453.47 16.2401 1479.14 7.84031C1480.19 7.48585 1481.29 7.14369 1482.44 6.81753C1489.6 4.84091 1499.68 29.1675 1500.33 31.0448C1503.52 37.9437 1493.53 47.3388 1494.85 48.9606C1505.2 61.9178 1519.61 22.9402 1539.35 32.7211C1539.91 33.0847 1533.96 38.565 1535.21 40.0492C1539.03 44.6678 1545.3 44.6238 1548.75 49.5808C1556.64 61.1725 1549.25 79.8463 1570.66 80.5608C1572.5 80.6593 1577.7 71.4498 1585.42 68.7705C1589.72 67.655 1595.19 68.5322 1601.14 74.6801C1604.47 78.0832 1614.01 88.0313 1620.63 100.091C1627.43 112.23 1630.72 123.169 1631.34 125.992C1631.41 126.234 1631.48 126.467 1631.55 126.69C1634.89 139.539 1624.51 133.535 1624.61 134.64C1624.93 151.325 1620.82 155.509 1617.27 158.531C1613.43 161.368 1608.92 162.806 1601.8 168.791C1587.29 179.9 1622.16 177.328 1625.92 182.808C1626.66 183.907 1626.87 185.544 1626.68 187.45C1626.54 189.961 1625.3 195.276 1623.17 198.831C1621.08 202.516 1618.69 204.903 1616.47 206.782C1612.02 210.423 1607.97 212.168 1605.91 212.927C1600.87 214.586 1600.67 207.277 1596.96 209.231C1572.6 221.069 1602.57 229.187 1600.94 239.291C1598.38 253.906 1586.18 256.783 1573.9 259.325C1566.25 260.869 1558.52 262.282 1552.94 266.447C1549.06 269.324 1556.02 270.764 1553.34 274.199C1542.73 287.65 1529.76 288.983 1521.04 307.756C1519.64 310.799 1519.16 332.947 1503.91 331.641C1501.73 331.432 1500.2 323.938 1493.97 327.879C1484.65 333.761 1469.55 346.085 1462.56 355.597C1457.4 362.626 1471.87 363.701 1461.72 368.659C1457.2 370.852 1459.44 360.223 1451.31 364.718C1443.23 369.183 1426.62 384.931 1420.33 390.97C1414.07 397.009 1423.04 399.763 1422.89 400.641C1421.87 405.83 1412.1 419.987 1410.98 420.974C1400.59 430.637 1389.93 439.722 1379.12 448.393C1332.92 485.643 1283.4 514.64 1240.03 553.657C1235.87 557.436 1244.14 561.748 1243.56 562.393C1233.27 574.48 1229.64 558.555 1220.31 553.784C1218.23 552.744 1215.88 552.245 1213.1 552.76C1225.66 564.878 1217.51 567.426 1208.63 577.672C1204.4 582.619 1211.48 585.334 1211.49 586.238C1211.24 600.045 1197.74 594.695 1194.61 593.937C1183.2 591.067 1186.52 604.229 1178.88 602.581C1171.16 601.11 1171.21 586.992 1162.16 596.629C1164.24 603.479 1182.39 607.793 1177.92 616.445C1175.45 621.352 1172.32 626.413 1168.87 631.64C1158.11 647.505 1142.34 668.92 1139.42 679.835C1136.4 686.799 1143 699.885 1149.93 706.668C1155.93 712.892 1161.75 717.347 1166.87 721.276C1166.21 720.938 1167.3 721.623 1168.75 721.968C1170.24 722.367 1172.12 722.685 1174.11 722.944C1178.14 723.462 1182.61 723.806 1188.2 724.347C1189.03 724.426 1189.83 724.492 1190.61 724.546C1216.25 725.045 1205.41 714.319 1221.25 705.514C1237.83 695.671 1236.74 726.401 1241 731.888C1245.39 737.295 1246.59 730.18 1250.9 732.596C1255.19 735.009 1249.09 741.243 1257.38 740.242C1263.18 739.541 1273.76 730.969 1279.84 723.326C1282.54 719.963 1284.32 716.777 1284.52 714.575C1285.79 699.263 1271.9 688.519 1293.07 686.582C1294.3 686.464 1293.25 695.114 1297.88 694.28C1323.46 689.418 1348.76 680.409 1373.66 671.353C1384.41 667.446 1394.98 663.45 1405.5 659.363C1410.3 657.49 1410.6 667.273 1413.49 666.232C1443.56 654.512 1426.25 647.715 1430.32 625.224C1439.75 644.883 1455.61 650.434 1474.73 634.86C1486.03 625.473 1477.91 619.922 1480.43 608.846C1480.87 606.816 1485.42 605.32 1488.57 603.354C1490.54 602.136 1491.96 600.727 1491.31 598.972C1485.77 584.258 1467.93 579.017 1489.6 567.108C1490.57 566.592 1493.69 574.622 1496.64 572.416C1515.8 557.987 1507.03 545.252 1523.58 525.594C1536.54 510.172 1568 490.286 1585.05 474.391C1602.35 491.399 1613.32 471.694 1607.45 453.66C1610.39 450.849 1613.37 447.844 1616.3 444.879C1624.4 436.692 1632.65 428.303 1641.7 421.939C1645.96 418.939 1648.37 426.36 1649.36 426.458C1664.59 428.358 1658.47 412.029 1660.67 409.239C1669.18 398.651 1679.98 390.714 1690.24 384.504C1707.95 373.612 1725.85 365.097 1741.62 348.056C1741.84 347.822 1741.64 346.711 1741.42 345.255C1740.7 340.736 1739.86 332.791 1750.4 337.852C1751.29 338.357 1744.69 350.32 1759.38 343.513C1774.18 336.623 1805.16 332.316 1823.05 316.988C1827.27 313.274 1835.61 295.442 1849.76 301.895C1851.63 302.786 1851.69 307.875 1854.54 309.74C1859.02 312.603 1860.85 310.036 1862.98 307.902C1865.24 305.638 1867.82 303.857 1873.95 309.753C1885.83 321.151 1904.37 326.992 1922.88 310.923C1923.49 310.43 1924.53 296.003 1931.17 294.09C1932.68 293.656 1934.29 293.236 1935.98 292.82C1946.35 290.205 1959.5 288.928 1969.24 287.042C1974.69 285.985 1969.72 278.383 1970.64 278.057C2006.49 267.481 2034.52 275.309 2070.2 284.263C2072.14 284.751 2074.07 285.289 2076.01 285.889C2082.38 287.16 2109.91 286.034 2115.99 303.74C2120.66 321.744 2083.83 339.574 2103.94 352.652C2103.74 352.139 2103.57 351.628 2103.45 351.147C2102.57 337.349 2131.27 354.708 2135.69 369.638C2138.38 376.342 2133.33 384.366 2122.16 384.896C2115.88 395.961 2106.29 405.637 2096.8 414.687C2072.43 437.073 2043.57 453.855 2020.28 479.888C2018.88 481.438 2017.51 483.008 2016.16 484.603C2014.68 486.349 2018.2 502.223 2013.84 505.416C2007.39 510.123 1999.75 507.445 1995.01 510.573C1984.78 517.214 1976.14 525.078 1967.95 533.16C1960.13 540.879 1952.86 548.835 1944.68 556.198C1938.36 561.989 1935.44 554.876 1927.95 562.175C1921.87 568.197 1922.4 576.878 1915.92 583.948C1914.44 585.562 1912.63 587.068 1910.32 588.468C1900.9 594.213 1879.31 590.053 1868.22 602.176C1883.72 613.29 1875.6 621.276 1875.48 639.768C1875.76 643.125 1882.81 641.115 1883.31 642.608C1884.2 644.634 1884.12 646.137 1883.91 647.694C1883.84 646.346 1882.71 644.69 1882.18 644.462C1881.63 644.137 1881.68 644.434 1882.03 644.642C1882.77 645.117 1884.43 645.424 1886.38 644.809C1887.11 644.594 1887.92 643.106 1888.72 641.525C1889.5 639.743 1890.22 637.836 1890.76 637.393C1898.64 629.989 1913.38 645.087 1916.29 647.675C1926.81 657.557 1932.18 649.226 1940.54 652.921C1949.03 656.566 1936.39 661.392 1946.37 663.532C1952.03 664.724 1958.12 665.424 1964.44 665.78C1981.45 666.748 1999.78 664.422 2015.02 662.497C2023.38 661.385 2016.46 653.764 2017.63 653.409C2034.22 648.834 2053.15 654.37 2059.06 635.835C2074.95 667.323 2071.88 646.158 2081.53 636.725L2081 636.879C2083.41 633.796 2087.02 631.529 2092.85 631.461C2094.89 631.457 2104.53 650.024 2098.52 655.502C2096.22 657.604 2092.87 658.577 2089.17 659.422C2088.66 659.588 2087.14 660.062 2086.62 660.158C2080.63 660.69 2073.74 660.81 2068.01 664.977C2065.89 666.579 2055.5 688.455 2053.65 689.972C2039.7 701.906 2032.3 671.56 2031.29 670.026C2019.43 653.403 2005.24 676.388 2000.48 678.306C1988.23 683.599 1976.4 684.521 1965.1 685.297C1957.62 685.82 1950.39 686.418 1943.12 688.432C1931.45 691.583 1930.12 711.883 1920.22 711.056C1901.86 709.228 1891.05 700.12 1874.14 691.644C1872 690.188 1869.43 689.007 1864.09 686.413C1861.36 684.967 1857.79 683.454 1852.08 678.64C1846.58 674.481 1837.74 661.723 1837.68 649.094C1836.45 637.092 1836.62 624.98 1835.84 611.966C1835.54 606.276 1829.42 603.293 1827.39 598.433C1825.29 593.845 1827.89 586.185 1843.19 579.666C1845.32 578.327 1869.2 573.393 1867.85 559.634C1867.69 557.85 1862.77 553.654 1863.43 552.045C1865.14 548.104 1867.33 545.411 1869.78 542.989C1873.56 539.348 1878.35 536.16 1882.46 529.304C1888.9 518.523 1897.65 504.384 1910.2 496.145C1916.39 492.017 1928.5 492.641 1935.35 493.007C1936.85 493.098 1938.12 493.155 1939.01 493.128C1952.94 492.851 1953.06 475.203 1964.36 479.446C1975.74 483.702 1975.53 503.792 1992.86 498.757C1982.99 485.134 1973.46 470.678 1963.79 456.779C1971.62 450.84 1979.48 445.238 1987.41 439.627C2008.88 424.346 2030.87 409.835 2049.14 392.864C2052.2 389.973 2042.98 386.106 2046.03 382.886C2049.48 379.227 2053.05 376.15 2056.13 373.709C2066.42 365.239 2079.5 355.804 2079.84 351.755C2079.73 351.294 2078.78 351.435 2077.11 353.277C2075.47 355.043 2073.18 358.921 2071.76 363.55C2070.55 357.663 2069.02 352.399 2067.34 350.101C2066.02 348.042 2062.62 348.334 2066.02 361.871C2069 363.903 2072.15 366.758 2076.15 370.22C2080.01 364.636 2078.93 359.968 2076.68 356.974C2074.37 353.893 2071.23 352.653 2069.43 350.766C2067.98 349.298 2070.31 344.737 2069.3 342.483C2064.54 334.245 2062.89 351.751 2060.97 353.947C2060.08 355.075 2059.45 355.623 2058.92 355.68C2046.21 354.93 2046.65 324.281 2027.48 323.959C2026.06 323.842 2012.83 344.155 2011.56 345.569C2001.48 354.272 2009.58 338.445 2002.74 337.299C1990.33 335.432 1980.36 331.867 1967.36 341.26C1964.79 343.151 1961.12 350.622 1955.91 353.245C1952.33 354.852 1948.31 355.273 1943.91 353.307C1942.12 352.512 1940.86 345.801 1939.63 345.771C1917.68 345.628 1923.44 366.033 1914.55 376.254C1907.4 384.497 1892.87 380.017 1885.2 376.521C1883.52 375.667 1882.1 374.896 1881.29 374.32C1873.6 369.184 1878.28 367.974 1882.26 367.453C1884.35 367.162 1886.26 367.033 1886.3 366.643C1887.21 358.589 1883.89 357.127 1879.11 357.72C1875.76 358.109 1871.66 359.622 1867.83 360.477C1859.71 341.147 1847.44 346.953 1858.42 362.743C1859.61 364.46 1865.75 360.178 1867.83 360.477C1866.86 382.515 1855.47 389.476 1833.54 377.869C1823.25 372.51 1825.56 359.916 1806.07 372.797C1797.3 378.725 1807.01 390.076 1800.59 397.465C1794.53 404.496 1786.05 408.591 1776.85 412.019C1764.13 416.705 1750.24 420.129 1740.75 427.691C1734.89 432.387 1745.26 435.049 1741.46 438.473C1738.47 441.195 1735.2 443.298 1731.78 445.216C1723.81 449.676 1717.17 451.775 1711.89 459.005C1711.24 459.933 1718.57 464.508 1715.83 466.982C1703.65 478.248 1689.72 489.96 1675.65 502.389C1665.66 511.251 1655.36 520.768 1644.91 531.742C1632.73 544.556 1614.1 570.954 1600.41 583.87C1578.67 604.506 1545.74 623.35 1525.1 643.119C1523.27 644.876 1521.61 646.577 1520 648.34C1506.91 662.495 1515.31 665.937 1512.45 675.749C1506.76 695.092 1469.94 697.753 1465.06 697.121C1464.97 697.151 1478.19 685.452 1468.12 687.384C1458.72 683.216 1465.23 696.958 1465.06 697.121C1461.93 697.335 1430.76 714.133 1425.26 718.33C1422.34 720.837 1427.81 726.784 1426.19 727.967C1419.54 732.76 1412.83 737.178 1406.22 741.252C1374.99 760.486 1342.19 775.049 1304.3 784.261C1303.46 784.365 1301.96 775.671 1300.05 776.008C1298.83 776.212 1297.61 776.442 1296.45 776.682C1273.65 781.112 1261.8 795.119 1241.44 806.18C1227.19 813.777 1211.64 817.223 1194.36 813.455C1188.85 811.387 1182.67 807.983 1176.76 802.814C1166.03 801.882 1154.06 807.094 1120.26 784.463C1112.98 776.776 1104.19 765.899 1098.57 757.182C1088.63 741.583 1073.26 747.753 1071.62 746.377C1055.34 730.655 1042.91 702.448 1044.68 675.015C1050.99 623.764 1069.54 612.417 1086.93 587.35C1089.91 583.544 1093.41 578.937 1097.22 574.009C1110.55 556.549 1128.41 536.388 1138.99 524.831C1149.86 512.87 1159.57 509.83 1168.82 498.798C1170.09 497.31 1163.76 492.716 1164.03 492.117C1164.71 490.284 1165.41 488.86 1166.11 487.784C1171.75 478.996 1176.83 494.3 1180.91 494.777C1197.39 496.895 1206.78 497.618 1217.98 481.513C1220.58 477.803 1213.82 449.144 1218.83 443.131C1225.42 435.317 1228.46 445.134 1235.16 436.753C1235.72 436.052 1231.92 431.556 1237.04 427.727C1260.86 409.84 1287.76 391.577 1310.61 370.656C1310.65 370.617 1310.69 370.578 1310.74 370.539C1313.86 367.708 1303.61 364.282 1308.03 360.062C1328.8 340.213 1352.54 319.012 1376.32 302.901C1382.2 298.954 1383.44 306.731 1385.88 307.12C1400.73 309.372 1398.76 287.809 1400.11 286.092C1431.66 245.317 1470.82 228.318 1501.79 188.082C1502.39 187.306 1502.97 186.533 1503.54 185.762C1505.33 183.362 1506.83 155.591 1523.64 160.326C1524.5 160.97 1543.16 164.235 1536.41 154.883C1536.18 154.609 1534.14 153.585 1532.49 152.371C1531.67 151.765 1530.97 151.065 1530.58 150.482C1530.38 150.199 1530.25 149.94 1530.15 149.832C1530.04 149.736 1529.97 149.742 1529.71 150.328C1529.35 151.216 1528.25 152.47 1525.7 157.752C1524.47 160.358 1522.85 164.309 1521.58 169.168C1520.28 173.942 1519.67 179.276 1519.53 180.527C1519.3 173.745 1518.68 170.298 1524.52 169.268C1526.48 168.955 1534.28 166.96 1535.43 167.545C1533.39 161.814 1530.9 158.527 1526.28 158.027C1525.77 157.896 1517.75 158.447 1513.99 161.733C1510.05 164.737 1510.29 168.622 1517.63 161.794C1519.88 159.618 1534.91 145.836 1525.59 149.84C1525.21 149.854 1524.8 149.879 1524.38 149.916C1521.23 150.233 1521.9 156.483 1515.24 155.359C1505.19 153.794 1496.76 142.027 1481.65 144.888C1478.89 145.325 1465.23 154.521 1463.26 141.878C1462.91 139.878 1467.67 134.242 1464.45 132.024C1457.8 127.456 1450.16 124.574 1442.39 122.164C1436.65 120.401 1427.36 118.806 1417.84 114.904C1411.73 112.501 1416.24 101.5 1409.34 97.8349C1402.47 94.1353 1387.03 90.7095 1379 96.0748C1371.12 101.418 1380 119.338 1368.61 121.136C1366.43 121.498 1364.24 121.844 1362.04 122.178C1317.11 128.118 1310.69 124.992 1275.33 139.746C1264.09 144.62 1254.43 149.552 1243.95 156.431C1237.68 160.61 1246.58 162.154 1237.59 168.907C1235.14 170.775 1232.54 172.818 1229.83 175.016C1200.66 197.906 1162.91 239.279 1130.32 263.251C1125.42 266.79 1120.56 269.969 1115.95 272.472C1085.42 289.313 1107.47 252.892 1086.96 268.587C1077.03 276.26 1083.71 300.36 1082.23 302.997C1067.73 329.189 1047.19 338.27 1031.64 360.086C1028.43 364.596 1038.41 366.238 1035.61 370.016C1026.09 382.966 1012.01 393.063 1002.23 405.053C997.863 410.439 1003.57 413.851 998.933 418.276C987.853 428.938 976.7 437.2 961.929 444.273C960.59 444.908 960.866 432.578 952.906 440.819C952.787 440.942 952.668 441.065 952.548 441.188C939.619 454.443 919.739 467.098 909.261 486.763C906.165 492.631 916.617 503.345 899.488 505.999C895.864 506.572 885.922 491.238 885.284 513.682C885.32 517.334 879.727 551.911 860.049 551.533C854.911 551.438 838.182 546.802 833.516 553.894C832.902 554.911 841.592 557.999 836.87 563.112C836.489 563.518 836.109 563.92 835.729 564.319C820.197 581.155 792.386 600.943 768.731 615.197C762.564 619.097 775.936 621.65 766.66 627.148C764.812 628.235 762.974 629.28 761.112 630.302C739.142 642.457 711.837 652.713 687.847 659.898C678.196 662.747 682.065 653.772 681.105 653.355C673.919 650.092 669.993 652.232 667.296 655.729C664.693 659.517 663.804 665.032 662.134 666.187C642.419 679.476 621.881 678.358 598.693 686.247C592.216 688.375 598.718 694.856 597.559 695.854C585.009 705.727 592.373 689.657 583.272 690.027C575.098 690.28 566.754 690.841 558.471 691.506C543.298 692.575 527.733 695.049 512.752 697.212C504.626 698.375 514.707 706.537 507.317 707.464C486.695 710.021 465.123 711.635 440.005 710.278C430.014 709.614 418.563 708.833 403.804 706.439C396.298 705.164 388.012 703.624 376.688 700.124C365.347 695.772 350.323 693.519 324.979 669.755C321.613 666.141 318.846 662.775 316.334 659.474C307.227 646.823 318.965 650.107 318.26 646.69C315.003 624.924 291.315 608.673 287.522 601.807C271.594 574.716 275.57 559.526 275.976 529.994C276.168 525.489 276.561 520.923 277.173 516.313C277.619 494.492 298.266 449.114 319.927 430.982C330.085 420.005 353.601 396.687 374.475 381.314C387.004 372.436 403.324 356.304 429.75 337.644C437.143 332.887 443.085 328.321 452.043 320.745C455.683 317.672 459.458 314.459 463.269 311.232C485.404 292.535 504.829 277.877 518.746 266.025C534.56 251.775 554.076 235.579 558.894 230.764C574.576 213.851 581.162 209.223 589.558 200.869C597.43 193.283 604.39 185.969 610.405 178.518C610.025 178.92 609.701 179.286 609.427 179.606C608.724 180.475 601.646 174.298 600.755 175.32C596.785 181.018 599.674 178.014 598.448 169.722C598.39 168.917 598.467 169.079 598.564 169.087C598.65 169.116 598.692 168.935 598.172 168.142C597.22 166.614 593.547 162.738 587.042 158.727C583.748 156.569 580.516 154.563 577.418 152.784C574.45 151.082 573.625 161.06 568.902 158.748C564.177 156.506 559.571 154.146 557.565 152.876C555.545 151.478 556.591 151.819 564.037 151.508C571.774 150.883 562.399 142.593 569.754 141.812C569.732 141.807 569.709 141.802 569.686 141.798C554.302 138.587 538.902 138.406 535.55 140.532C534.811 140.727 534.069 140.925 533.321 141.127C525.726 143.217 538.991 149.853 529.114 151.853C488.852 159.979 453.793 169.537 416.917 179.566C394.317 185.8 371.104 191.616 349.959 196.115C346.224 196.893 335.154 181.701 330.027 188.185C331.854 192.96 334.594 198.279 336.879 203.215C336.1 203.661 335.367 204.091 334.728 204.479C310.563 218.519 298.721 228.509 291.519 239.068C287.158 244.637 278.432 264.742 261.448 289.059C239.495 318.46 209.918 358.589 153.373 382.062C139.403 387.54 124.484 393.079 109.327 398.116C104.697 399.646 115.854 406.131 106.811 409.142C80.422 417.83 53.4925 425.473 25.673 429.869C2.04265 433.267 -24.4466 437.279 -61.4688 432.497C-69.1667 431.186 -63.9492 415.212 -86.7843 415.155C-87.1549 415.144 -87.7716 415.111 -88.5983 415.053C-93.7427 415.087 -115.86 413.413 -125.046 414.213C-126.432 414.393 -122.128 423.92 -133.285 420.997C-150.993 416.159 -179.857 404.731 -202.04 378.733C-234.051 339.992 -245.364 293.763 -234.44 245.463C-234.179 248.084 -232.974 245.532 -231.929 237.412C-230.787 229.241 -222.7 238.561 -221.765 232.448C-220.227 222.402 -218.21 205.903 -210.897 188.82C-210.482 188.759 -207.594 178.63 -202.073 167.113C-196.678 155.885 -190.483 146.726 -184.806 139.405C-173.395 124.881 -162.59 115.064 -151.005 107.56C-150.883 107.486 -150.761 107.412 -150.639 107.338C-131.58 95.781 -126.86 111.735 -108.43 114.175C-105.997 114.563 -94.7414 105.143 -88.69 111.258C-74.4524 126.923 -64.0264 148.267 -48.0661 164.322C-46.4066 166.08 -44.188 164.218 -43.585 164.772C-43.2321 165.001 -43.4166 165.825 -42.8987 166.949C-42.4444 168.117 -40.6978 169.255 -38.9289 171.587C-38.6189 171.857 -38.2067 172.95 -38.7507 175.413C-39.1965 177.793 -40.024 181.156 -39.5241 183.388C-38.836 186.476 -31.0478 190.946 -30.9787 195.649C-30.9144 200.369 -38.672 197.84 -40.4495 205.384C-41.7172 210.856 -37.464 214.908 -38.2923 220.659C-38.4517 222.75 -39.2393 224.956 -41.1512 227.398ZM1083.8 659.538C1096.44 646.631 1069.96 632.273 1070.08 654.449C1070.14 655.623 1083.18 660.333 1083.8 659.538ZM2037.21 433.849C2057.01 434.471 2051.87 413.239 2037.52 412.134C2023.24 410.934 2031.23 433.636 2037.21 433.849ZM1922.78 540.923C1942.98 535.742 1916.88 502.141 1907.39 523.167C1906.84 524.396 1921.58 541.274 1922.78 540.923ZM-143.331 155.672C-142.88 155.689 -135.959 148.52 -136.054 148.098C-139.352 137.541 -153.776 152.506 -143.331 155.672ZM1911.29 669.293C1906.19 663.483 1888.9 668.042 1895.26 676.003C1901.01 682.628 1918.12 676.776 1911.29 669.293ZM1542.31 256.421C1542.72 256.654 1547.75 252.205 1545.85 250.546C1539.82 245.099 1534.92 253.203 1542.31 256.421ZM2168.85 618.947C2165.53 619.969 2162.32 620.676 2159.2 621.177L2159.45 621.077C2127.03 627.41 2102.09 606.383 2138.41 595.687C2145.67 593.511 2127.53 612.146 2137.62 611.471C2143.96 611.035 2148.43 607.818 2152.39 603.951C2152.44 603.93 2152.58 603.877 2152.63 603.858C2160.91 596.427 2167.2 587.515 2179.64 590.329C2184.15 590.993 2171.26 618.501 2168.81 619.015C2168.82 618.992 2168.84 618.97 2168.85 618.947ZM1120.49 662.655C1120.85 662.526 1124.77 654.303 1124.6 653.975C1118.17 644.914 1109.49 663.128 1120.49 662.655ZM1398.65 16.9728C1398.15 15.9781 1376.15 14.9882 1375.46 15.9025C1364.64 31.3391 1407.48 33.2925 1398.65 16.9728ZM1585.78 474.569C1585.67 460.757 1593.18 451.194 1607.41 453.685C1600.03 460.476 1593.06 467.712 1585.78 474.569Z" fill="#FFA1EB"/>
</svg>
