<svg width="752" height="943" viewBox="0 0 752 943" fill="none" xmlns="http://www.w3.org/2000/svg">
<path d="M91.3281 943C87.9948 923 84.3281 903 80.3281 883C76.3281 863.667 69.6615 849 60.3281 839C48.3281 825.667 28.3281 814.333 0.328125 805C17.6615 805 29.6615 796 36.3281 778V168C29.6615 149.333 17.9948 140 1.32813 140C28.6615 130.667 48.6615 119.333 61.3281 106C71.3281 95.3333 77.9948 80 81.3281 60C85.3281 40 89.3281 20 93.3281 -2.90871e-05C99.3281 28 104.995 56 110.328 84C120.328 108.667 144.661 127.333 183.328 140C164.661 140 151.995 149.333 145.328 168V172C145.328 176.667 144.661 203.333 143.328 252C142.661 300 142.328 345.667 142.328 389V398H604.328V168C598.995 149.333 587.328 140 569.328 140C607.995 127.333 632.328 109 642.328 84.9999C648.328 56.3333 654.328 28 660.328 -2.90871e-05C666.328 28 672.328 56 678.328 84C688.328 108.667 712.661 127.333 751.328 140C731.995 140 719.661 149.333 714.328 168L716.328 783C722.328 797.667 733.661 805 750.328 805C711.662 818.333 687.328 836.667 677.328 860C671.328 888 665.328 915.667 659.328 943C655.995 923 652.328 903 648.328 883C644.328 863.667 637.662 849 628.328 839C616.328 825.667 596.328 814.333 568.328 805C586.995 805 598.995 796 604.328 778L605.328 773V514H142.328V515C142.328 567.667 142.661 622.667 143.328 680C144.661 737.333 145.328 768.333 145.328 773V778L148.328 783C154.328 797.667 165.661 805 182.328 805C143.661 818.333 119.328 836.667 109.328 860C103.328 888 97.3281 915.667 91.3281 943ZM605.328 488V425H142.328V488H605.328Z" fill="#F778BD"/>
</svg>
