<svg width="5871" height="4036" viewBox="0 0 5871 4036" fill="none" xmlns="http://www.w3.org/2000/svg">
<path d="M612.117 3260.5C603.784 3210.5 594.617 3160.5 584.617 3110.5C574.617 3062.17 557.951 3025.5 534.617 3000.5C504.617 2967.17 454.617 2938.83 384.617 2915.5C427.951 2915.5 457.951 2893 474.617 2848V1323C457.951 1276.33 428.784 1253 387.117 1253C455.451 1229.67 505.451 1201.33 537.117 1168C562.117 1141.33 578.784 1103 587.117 1053C597.117 1003 607.117 953 617.117 903C632.117 973 646.284 1043 659.617 1113C684.617 1174.67 745.451 1221.33 842.117 1253C795.451 1253 763.784 1276.33 747.117 1323V1333C747.117 1344.67 745.451 1411.33 742.117 1533C740.451 1653 739.617 1767.17 739.617 1875.5V1898H1894.62V1323C1881.28 1276.33 1852.12 1253 1807.12 1253C1903.78 1221.33 1964.62 1175.5 1989.62 1115.5C2004.62 1043.83 2019.62 973 2034.62 903C2049.62 973 2064.62 1043 2079.62 1113C2104.62 1174.67 2165.45 1221.33 2262.12 1253C2213.78 1253 2182.95 1276.33 2169.62 1323L2174.62 2860.5C2189.62 2897.17 2217.95 2915.5 2259.62 2915.5C2162.95 2948.83 2102.12 2994.67 2077.12 3053C2062.12 3123 2047.12 3192.17 2032.12 3260.5C2023.78 3210.5 2014.62 3160.5 2004.62 3110.5C1994.62 3062.17 1977.95 3025.5 1954.62 3000.5C1924.62 2967.17 1874.62 2938.83 1804.62 2915.5C1851.28 2915.5 1881.28 2893 1894.62 2848L1897.12 2835.5V2188H739.617V2190.5C739.617 2322.17 740.451 2459.67 742.117 2603C745.451 2746.33 747.117 2823.83 747.117 2835.5V2848L754.617 2860.5C769.617 2897.17 797.951 2915.5 839.617 2915.5C742.951 2948.83 682.117 2994.67 657.117 3053C642.117 3123 627.117 3192.17 612.117 3260.5ZM1897.12 2123V1965.5H739.617V2123H1897.12ZM1007.98 4035.5C991.31 4035.5 951.31 4033.83 887.976 4030.5C607.977 4015.5 341.31 3948 87.9765 3828L0.476429 3763C347.143 3926.33 677.143 4008 990.476 4008C1573.81 4008 2132.98 3707.17 2667.98 3105.5L2677.98 3098L2595.48 3103C2587.14 3103 2582.98 3093 2582.98 3073V3058C2606.31 3036.33 2633.81 3022.17 2665.48 3015.5C2693.81 3002.17 2726.31 2981.33 2762.98 2953C2847.98 2868 3017.14 2629.67 3270.48 2238L3325.48 2153L3320.48 2140.5C3288.81 2108.83 3241.31 2078 3177.98 2048L3250.48 2018L3200.48 1940.5C3083.81 1758.83 2940.48 1543 2770.48 1293C2742.14 1263 2719.64 1238 2702.98 1218C2659.64 1206.33 2636.31 1183 2632.98 1148C2634.64 1131.33 2640.48 1123 2650.48 1123C2683.81 1123 2733.81 1125.5 2800.48 1130.5C2868.81 1135.5 2919.64 1138 2952.98 1138H3300.48C3307.14 1144.67 3310.48 1152.17 3310.48 1160.5C3310.48 1180.5 3293.81 1195.5 3260.48 1205.5C3160.48 1220.5 3113.81 1247.17 3120.48 1285.5C3130.48 1343.83 3223.81 1513.83 3400.48 1795.5L3422.98 1668C3427.98 1688 3435.48 1731.33 3445.48 1798C3453.81 1844.67 3462.98 1879.67 3472.98 1903L3485.48 1918L3892.98 1328C3899.64 1318 3902.98 1310.5 3902.98 1305.5C3902.98 1272.17 3849.64 1243.83 3742.98 1220.5C3712.98 1215.5 3690.48 1212.17 3675.48 1210.5C3640.48 1195.5 3622.98 1180.5 3622.98 1165.5C3622.98 1155.5 3634.64 1145.5 3657.98 1135.5H3982.98L4072.98 1123L4175.48 983C4405.48 669.666 4620.48 434.666 4820.48 278C5060.48 92.9999 5302.98 0.499924 5547.98 0.499924C5632.98 0.499924 5712.14 9.66652 5785.48 27.9997L5870.48 67.9998C5773.81 41.3331 5677.98 27.9997 5582.98 27.9997C5091.31 27.9997 4612.14 378 4145.48 1078L4120.48 1115.5L4187.98 1105.5C4197.98 1127.17 4202.98 1138.83 4202.98 1140.5C4202.98 1148.83 4198.81 1161.33 4190.48 1178C4150.48 1199.67 4122.14 1213.83 4105.48 1220.5C4088.81 1227.17 4067.14 1249.67 4040.48 1288L3577.98 1938L3540.48 1990.5L3595.48 2023C3610.48 2031.33 3637.14 2042.17 3675.48 2055.5L3595.48 2100.5V2103C3910.48 2584.67 4097.14 2862.17 4155.48 2935.5C4190.48 2970.5 4215.48 2993 4230.48 3003C4272.14 3033 4304.64 3054.67 4327.98 3068C4327.98 3069.67 4328.81 3076.33 4330.48 3088C4330.48 3101.33 4323.81 3108 4310.48 3108C4273.81 3108 4229.64 3104.67 4177.98 3098C4139.64 3093 4089.64 3090.5 4027.98 3090.5H3562.98C3552.98 3082.17 3547.98 3073 3547.98 3063C3547.98 3056.33 3551.31 3048.83 3557.98 3040.5C3564.64 3032.17 3568.81 3028 3570.48 3028C3603.81 3023 3638.81 3015.5 3675.48 3005.5C3767.14 2980.5 3810.48 2955.5 3805.48 2930.5C3795.48 2882.17 3714.64 2739.67 3562.98 2503L3455.48 2335.5L3422.98 2488C3417.98 2468 3412.14 2426.33 3405.48 2363C3400.48 2313 3392.98 2273.83 3382.98 2245.5L3377.98 2235.5L3060.48 2693C3002.14 2776.33 2962.14 2848 2940.48 2908C2938.81 2911.33 2937.98 2916.33 2937.98 2923C2937.98 2958 2989.64 2987.17 3092.98 3010.5C3149.64 3023.83 3203.81 3032.17 3255.48 3035.5L3287.98 3038V3090.5H2742.98L2702.98 3138C2222.98 3708 1697.98 4005.5 1127.98 4030.5C1054.64 4033.83 1014.64 4035.5 1007.98 4035.5Z" fill="#F778BD"/>
</svg>
