<svg width="68" height="68" viewBox="0 0 68 68" fill="none" xmlns="http://www.w3.org/2000/svg">
<circle cx="33.6362" cy="33.6362" r="33.6362" fill="black"/>
<path d="M16.7345 25.6006C16.8145 23.8524 17.0882 22.7248 17.4584 21.7677L17.4634 21.7545C17.8302 20.7806 18.4049 19.8983 19.1474 19.169L19.1579 19.1588L19.1681 19.1484C19.8979 18.4049 20.7805 17.8308 21.7536 17.4649L21.7704 17.4585C22.7253 17.0871 23.8507 16.8144 25.6004 16.7344M16.7345 25.6006C16.6503 27.4686 16.6289 28.0476 16.6289 32.8909C16.6289 37.7351 16.6492 38.3128 16.7344 40.1811M16.7345 25.6006V26.0718M25.6004 16.7344C27.4688 16.6492 28.0476 16.6289 32.8907 16.6289C37.7339 16.6289 38.3124 16.6503 40.1803 16.7344M25.6004 16.7344H26.0728M16.7344 40.1811C16.8144 41.931 17.0871 43.0562 17.4585 44.0111L17.4649 44.028M16.7344 40.1811L16.7631 40.332M16.7344 40.1811V39.7088M16.7345 26.0718C16.741 25.9221 16.748 25.7661 16.7556 25.6001C16.8433 23.6873 17.1684 22.5697 17.4784 21.7769C17.8795 20.7417 18.3877 19.9605 19.164 19.181C19.9019 18.424 20.799 17.8407 21.7901 17.4732C22.5793 17.1671 23.694 16.8429 25.5996 16.7556C25.7661 16.748 25.9226 16.741 26.0728 16.7344M16.7345 26.0718C16.6652 27.6548 16.6503 28.528 16.6503 32.8909C16.6503 37.2522 16.6652 38.1266 16.7344 39.7088M16.7345 26.0718L16.7344 39.7088M17.4649 44.028C17.8308 45.0011 18.4049 45.8836 19.1484 46.6135L19.1588 46.6238L19.169 46.634C19.8983 47.3766 20.7806 47.9514 21.7545 48.3182L21.7691 48.3237C22.7249 48.6944 23.8507 48.9672 25.6004 49.0473M17.4649 44.028L17.443 43.9124M17.443 43.9124L16.7631 40.332M17.443 43.9124C17.1542 43.1496 16.8568 42.0851 16.7631 40.332M17.443 43.9124C17.4531 43.9393 17.4632 43.9656 17.4733 43.9916C17.8395 44.9788 18.4197 45.8728 19.1723 46.6091C19.9084 47.3616 20.802 47.9417 21.7889 48.3079C22.5809 48.6163 23.6969 48.9388 25.6001 49.026C27.5208 49.1135 28.1142 49.1313 32.8907 49.1313C37.6673 49.1313 38.2613 49.1135 40.182 49.026C42.0875 48.9386 43.2021 48.6145 43.9914 48.3084C44.9788 47.9424 45.873 47.3619 46.6092 46.6091C47.3616 45.873 47.9417 44.9795 48.3079 43.9926C48.6163 43.2006 48.9388 42.0847 49.0259 40.1815C49.1133 38.2608 49.1313 37.6661 49.1313 32.8909C49.1313 28.1154 49.1133 27.5203 49.0259 25.5996C48.9381 23.6841 48.611 22.5677 48.3035 21.7778C47.9015 20.74 47.3917 19.955 46.608 19.1714C45.8259 18.3909 45.0431 17.8807 44.0044 17.4783C43.2117 17.1684 42.0947 16.8433 40.182 16.7556C40.0156 16.748 39.8592 16.741 39.7092 16.7344M16.7631 40.332C16.7604 40.2826 16.7579 40.2326 16.7556 40.182C16.748 40.0155 16.741 39.859 16.7344 39.7088M39.7092 16.7344H40.1803M39.7092 16.7344L26.0728 16.7344M39.7092 16.7344C38.1268 16.6652 37.2525 16.6503 32.8907 16.6503C28.5293 16.6503 27.6549 16.6652 26.0728 16.7344M40.1803 16.7344C41.9289 16.8144 43.0566 17.0881 44.0138 17.4583L44.027 17.4634C45.0009 17.8302 45.8832 18.4049 46.6125 19.1474L46.6226 19.1578L46.633 19.1679C47.3756 19.8972 47.9502 20.7797 48.3168 21.7539L48.323 21.7704C48.6944 22.7253 48.9672 23.8507 49.0471 25.6004M49.0471 40.1811C48.9672 41.9308 48.6944 43.0567 48.3237 44.0125L48.3182 44.027C47.9512 45.0011 47.3766 45.8832 46.634 46.6125L46.6236 46.6228L46.6135 46.6332C45.8836 47.3766 45.0011 47.9507 44.0279 48.3166L44.0111 48.3231C43.0562 48.6945 41.9308 48.9672 40.1811 49.0473M29.9985 39.8734C30.9154 40.2532 31.8982 40.4487 32.8907 40.4487C34.8952 40.4487 36.8177 39.6524 38.2351 38.2351C39.6524 36.8177 40.4487 34.8952 40.4487 32.8909C40.4487 30.8863 39.6524 28.9639 38.2351 27.5465C36.8177 26.1292 34.8952 25.3329 32.8907 25.3329C31.8982 25.3329 30.9154 25.5284 29.9985 25.9082C29.0814 26.288 28.2483 26.8447 27.5465 27.5465C26.8447 28.2484 26.288 29.0815 25.9082 29.9985C25.5284 30.9154 25.3329 31.8983 25.3329 32.8909C25.3329 33.8834 25.5284 34.8661 25.9082 35.7831C26.288 36.7001 26.8447 37.5332 27.5465 38.2351C28.2483 38.9368 29.0814 39.4936 29.9985 39.8734ZM27.5297 27.5297C28.9516 26.1078 30.88 25.3091 32.8907 25.3091C34.9016 25.3091 36.83 26.1078 38.2519 27.5297C39.6738 28.9516 40.4725 30.88 40.4725 32.8909C40.4725 34.9016 39.6738 36.83 38.2519 38.2519C36.83 39.6738 34.9016 40.4725 32.8907 40.4725C30.88 40.4725 28.9516 39.6738 27.5297 38.2519C26.1078 36.83 25.3091 34.9016 25.3091 32.8909C25.3091 30.88 26.1078 28.9516 27.5297 27.5297ZM44.7417 23.5438C44.7417 24.1194 44.513 24.6713 44.1062 25.0783C43.6993 25.4853 43.1472 25.7139 42.5718 25.7139C41.9961 25.7139 41.4443 25.4853 41.0373 25.0783C40.6304 24.6713 40.4016 24.1194 40.4016 23.5438C40.4016 22.9683 40.6304 22.4164 41.0373 22.0094C41.4443 21.6024 41.9961 21.3738 42.5718 21.3738C43.1472 21.3738 43.6993 21.6024 44.1062 22.0094C44.513 22.4164 44.7417 22.9683 44.7417 23.5438Z" stroke="white" stroke-linejoin="round"/>
</svg>
