<svg width="1920" height="198" viewBox="0 0 1920 198" fill="none" xmlns="http://www.w3.org/2000/svg">
<path d="M1849.75 0.252444C1852.12 -0.91306 1855.53 5.45978 1858.37 5.81304C1870.3 7.36791 1874.78 11.8205 1885.72 14.5087C1889.4 15.4202 1894.75 15.7539 1900.54 16.2412C1911.4 17.1207 1924.11 18.5912 1932.9 24.7296C1933 24.7216 1933.31 24.7485 1933.41 24.7412C1936.07 26.4973 1938.06 28.6183 1939.62 31.2004C1942.94 36.713 1946.05 44.3974 1946 55.3058C1946 55.307 1946 55.3081 1946 55.3092C1946 55.7421 1946 56.1801 1945.99 56.6231C1945.79 65.0357 1942 74.216 1941.4 83.7227C1940.9 90.9079 1940.98 127.74 1938.06 146.775C1937.11 152.935 1935.83 157.226 1934.28 158.037C1932.95 158.666 1931.43 158.86 1929.86 158.738L1930.26 158.748C1920.46 158.077 1906.22 146.225 1902.57 146.746C1901.07 146.957 1899.36 148.521 1897.55 150.114C1895.81 151.609 1893.99 153.128 1892.17 153.569C1880.15 156.505 1874.14 152.338 1863.27 167.413C1859.09 159.382 1854.77 151.36 1850.49 143.346C1844.82 147.025 1836.23 136.462 1832.76 137.039C1832.66 137.056 1832.55 137.081 1832.45 137.113C1829.78 137.965 1828.11 143.843 1825.22 144.121C1821.89 144.48 1816.78 137.645 1810.72 138.662C1800.78 140.3 1799 156.792 1793.06 158.882C1786.91 161.046 1777.34 152.084 1769.53 157.908C1768.55 159.725 1767.58 161.542 1766.6 163.359C1767.32 167.46 1768.03 171.562 1768.74 175.663C1764.82 177.584 1763.11 169.181 1759.51 169.044C1755.27 168.879 1753.17 176.864 1750.33 176.846C1748.02 176.824 1744.83 170.456 1741.84 170.885C1738.48 171.347 1738.34 177.015 1737.39 180.343C1737.1 181.3 1736.74 182.063 1736.2 182.455C1735.28 183.134 1717.64 188.445 1716.63 188.533C1709.07 188.995 1708.2 176.372 1702.13 175.349C1685.24 172.56 1668.08 183.036 1651.94 187.018C1647.16 188.201 1642.18 188.286 1637.23 187.609C1634.84 187.267 1632.5 186.735 1630.16 186.058C1641.06 153.713 1616.86 128.576 1625.96 179.161C1618.24 171.973 1612.81 185.641 1605.5 183.348C1600.78 181.853 1597.48 174.845 1590.73 175.049C1578.77 175.455 1565.73 195.447 1562.13 159.418C1548.07 165.828 1535.78 152.806 1530.81 184.644C1528.53 185.868 1523.99 178.93 1519.9 172.93C1517.44 169.335 1515.16 166.077 1513.61 165.116C1509.7 162.703 1480.09 154.194 1475.28 153.732C1470.45 153.266 1462 152.772 1457.95 155.579C1453.05 158.926 1449.74 189.68 1441.24 157.495C1440.91 156.268 1440.58 154.95 1440.24 153.536C1429.74 156.724 1425.95 155.654 1416.05 151.243C1414.24 150.446 1414.01 144.72 1412.97 144.722C1410.79 144.738 1407.18 148.996 1403.33 149.538C1397.01 150.425 1393.31 138.393 1394.12 156.798C1389.99 159.909 1385.84 163.019 1381.64 166.127C1380.19 162.581 1378.71 159.036 1377.2 155.49C1375.04 159.373 1372.72 163.256 1370.58 167.137C1373.1 140.488 1357.41 156.275 1362.6 171.538C1354.48 166.061 1346.38 160.579 1338.29 155.093C1339.31 124.815 1320.57 151.651 1322.17 168.108C1321.26 168.086 1320.35 168.065 1319.43 168.043C1312.6 161.383 1306.52 164.794 1298.82 163.072C1297.3 162.719 1295.71 162.15 1294.03 161.234C1284.11 155.853 1285.11 152.902 1282.03 138.982C1279.68 139.784 1277.44 140.585 1275.1 141.387C1262.99 179.584 1265.05 113.483 1244.25 142.797C1237.57 118.812 1221.15 131.435 1210.29 138.722C1209.01 139.568 1209.01 144.225 1207.33 145.663C1203.23 149.121 1192.69 143.144 1193.07 158.167C1189.42 153.823 1185.78 149.48 1182.14 145.137C1179.17 147.871 1176.18 150.605 1173.22 153.339C1173.23 158.028 1173.25 162.718 1173.27 167.407C1167.27 151.43 1157.86 157.579 1153.21 153.761C1152.29 152.987 1152.08 146.518 1149.21 144.756C1145.85 142.663 1139.59 144.582 1135.59 142.563C1134.04 149.73 1132.49 156.897 1130.94 164.063C1123.77 167.954 1121.27 149.041 1117.06 147.574C1116.3 147.319 1102.5 148.685 1101.76 149.089C1095.69 152.292 1097.4 168.405 1079.79 164.96C1076.67 164.337 1074.13 158.762 1071.28 158.539C1066.29 158.136 1051.23 170.785 1050.01 182.47C1044.01 167.847 1027.63 173.827 1022.92 169.601C1021.46 168.302 1021.11 158.987 1016.69 157.004C1013.12 155.387 1003.85 162.846 999.251 161.597C994.502 160.237 992.639 152.411 990.504 151.857C988.475 151.342 986.593 157.659 983.762 157.622C979.422 157.509 975.083 154.858 971.244 152.237C967.231 149.67 963.74 147.132 960.24 147.037C950.271 146.737 941.447 165.433 933.124 173.729C930.96 172.514 929.051 168.497 926.813 168.457C910.928 168.077 893.928 166.753 876.446 164.701C864.691 163.283 853.061 161.585 842.034 159.792C829.492 157.781 798.775 131.907 806.418 174.392C801.94 181.742 770.625 164.163 764.656 163.817C762.037 163.665 759.636 165.013 757.384 166.583C754.536 168.612 752.259 171.029 749.726 171.077C736.084 171.343 725.904 165.891 708.647 172.516C704.103 174.249 699.41 183.253 696.753 183.151C693.539 183.008 690.033 174.31 685.991 173.762C679.832 172.991 670.367 173.827 661.778 174.203C656.735 174.429 651.829 174.489 648.287 173.929C646.547 173.638 645.884 165.997 643.458 163.613C633.769 154.297 623.037 155.126 624.985 179.52C612.624 165.691 601.214 178.347 589.779 179.142C565.603 180.768 521.577 175.161 500.526 185.457C487.267 191.951 487.62 202.893 468.048 193.492C463.703 191.407 459.378 188.592 454.106 186.105C441.742 180.252 430.405 160.062 421.048 184.442C407.335 178.155 396.41 182.66 386.191 161.851C385.005 166.85 383.828 171.849 382.659 176.848C380.993 176.976 379.259 177.104 377.589 177.231C377.054 172.467 376.521 167.703 375.99 162.939C367.801 162.088 358.201 170.843 349.706 176.528C345.538 179.223 341.871 181.227 338.544 181.19C321.593 181.028 277.096 173.462 262.199 167.296C260.331 166.555 258.817 166.505 257.547 166.629C253.215 167.052 252.044 169.528 247.934 153.342C245.999 154.83 244.047 156.317 242.119 157.802C240.944 162.411 239.758 167.02 238.605 171.628C227.297 171.947 214.011 164.896 203.358 165.007C194.056 165.112 182.554 168.082 170.939 170.203C158.388 172.498 145.792 173.804 135.753 169.456C130.933 167.346 124.913 157.85 120.18 157.938C113.296 158.057 111.548 173.771 102.804 174.025C87.7278 174.436 59.767 156.018 45.5602 157.326C41.3073 157.704 39.2984 163.541 36.3993 164.148C27.5603 166.022 19.8681 166.266 11.9027 169.593C8.73749 170.889 5.59105 172.653 2.29284 175.163C-10.2382 160.005 -9.01779 140.565 -12.7343 120.912C-14.9509 106.103 -26.4382 71.596 -23.054 58.7267C-22.5642 57.6198 -22.61 56.4345 -22.4972 55.2271C-22.399 54.0192 -22.2212 52.7834 -22.4938 51.4919C-23.1733 48.9012 -23.6032 46.2582 -23.491 43.5982C-23.3208 38.2779 -22.8277 32.8489 -23.027 27.8284C-9.89162 19.9896 -2.46606 28.8304 9.39579 43.0321C10.493 43.0117 11.6157 42.9914 12.7793 42.9714C34.1891 42.5849 55.6845 42.1827 77.1123 41.7641C79.1238 47.25 81.1686 52.736 83.1841 58.2216C83.184 58.2335 83.1839 58.2455 83.1839 58.2575C91.8225 64.6209 95.5683 50.5386 100.257 47.3603C118.577 34.9337 144.083 31.6421 171.048 32.2524C199.74 32.8976 229.969 37.911 255.369 40.939C264.92 42.0272 274.318 43.0276 282.048 43.5346C292.791 44.2082 327.362 36.7374 334.698 45.6115C336.654 47.9222 337.101 56.3634 339.127 56.7257C342.642 55.7632 345.86 54.8017 349.403 53.8395C363.806 49.737 378.532 45.6357 392.984 41.5358C429.965 54.5692 468.082 43.654 505.302 41.5565C557.625 38.6024 609.782 35.3333 661.551 33.1495C694.271 31.8283 725.287 30.7154 759.426 30.87C774.916 31.0348 790.352 31.3888 805.74 31.9449C824.848 32.6504 849.123 26.6921 867.642 30.9897C871.739 31.9352 874.539 36.1996 877.778 38.5068C880.773 40.5539 883.705 41.0593 888.478 36.3375C888.566 39.9906 888.656 43.6439 888.747 47.2971C897.574 42.9301 903.298 34.6307 913.298 33.8058C921.707 33.1257 944.107 32.6059 951.549 34.0059C955.371 34.7065 953.971 41.5309 957.598 41.4986C960.752 41.4432 965.828 38.876 971.292 36.4196C976.15 34.1436 981.404 31.9628 985.519 31.9638C993.212 31.9659 1006.31 39.8297 1012.24 38.6907C1033.62 34.6496 1057 22.9912 1079.8 26.1067C1086.13 26.9883 1094.21 35.8349 1096.21 35.5871C1100.07 35.0712 1101.2 26.4739 1103.79 25.3674C1116.95 19.7768 1137.47 29.9811 1150.37 30.3772C1192.4 31.6707 1236.95 27.8756 1278.76 29.3833C1284.63 29.5937 1291.44 29.6778 1298.54 29.7511C1323.8 30.0088 1354.43 30.1168 1373.39 35.0523C1378.56 36.4238 1377.32 45.8481 1381.68 45.8258C1386.56 45.7983 1389.14 39.4209 1391.46 38.8931C1402.74 36.2576 1423.68 32.0573 1440.5 32.2546C1447.16 32.3353 1453.09 33.114 1457.38 34.9466C1460.25 36.1845 1462.36 43.5571 1464.07 43.5248C1464.94 43.522 1466.89 38.4798 1469.61 37.9575C1488.26 34.3698 1503 35.3396 1519.47 36.7134C1524.22 37.1087 1529.19 37.5372 1534.42 37.9031C1566.4 40.0965 1602.11 35.8742 1637.14 35.142C1650.72 34.8444 1664.52 34.9291 1678.09 36.2114C1688.36 37.1756 1695.63 51.6722 1697.07 51.5062C1700.27 51.1684 1702.14 41.324 1708.56 38.8139C1716.79 35.6365 1726.11 35.1847 1735.72 35.5421C1751.36 36.1122 1767.2 38.8736 1779.82 35.8336C1789.94 33.398 1803.83 20.9517 1813.76 18.213C1818.19 16.9827 1826.06 17.999 1832.61 18.1527C1837.85 18.2725 1842.35 17.8777 1843.93 15.484C1846.08 12.185 1847.14 1.57079 1849.75 0.252444ZM1583.51 166.877C1584.87 149.896 1570.16 164.055 1575.72 173.148C1576.98 175.195 1583.17 171.285 1583.51 166.877ZM890.811 138.645C890.924 143.495 891.04 148.344 891.157 153.194C893.131 151.184 895.097 149.174 897.055 147.163C896.025 144.244 894.855 141.325 893.804 138.406C892.775 138.486 891.827 138.566 890.811 138.645Z" fill="#DAD8FF"/>
</svg>
