<svg xmlns="http://www.w3.org/2000/svg" viewBox="0 0 26 26"><defs><style>.cls-1{fill:#ca5656;}.cls-2,.cls-3{fill:none;stroke:#ca5656;}.cls-2{stroke-width:2px;}.cls-3{stroke-width:1.96px;}</style></defs><g id="Capa_2" data-name="Capa 2"><g id="Capa_2-2" data-name="Capa 2"><g id="Capa_2-3" data-name="Capa 2"><g id="Capa_2-2-2" data-name="Capa 2-2"><path class="cls-1" d="M0,0A81.8,81.8,0,0,1,7.21,5.78c2.32,2.07,4.57,4.15,6.71,6.3l3.2,3.3c1,1.14,2.1,2.24,3.1,3.41A81.8,81.8,0,0,1,26,26a81.8,81.8,0,0,1-7.21-5.78c-1.17-1-2.27-2.06-3.41-3.1l-3.3-3.2c-2.15-2.14-4.23-4.39-6.3-6.71A81.8,81.8,0,0,1,0,0Z"/><path class="cls-2" d="M2,13C4.5,8,9,5,13,5s8.5,3,11,8c-2.5,5-7,8-11,8S4.5,18,2,13Z"/><circle class="cls-3" cx="13" cy="13" r="2.94"/></g></g></g></g></svg>