<svg width="266" height="293" viewBox="0 0 266 293" fill="none" xmlns="http://www.w3.org/2000/svg">
<path d="M194.807 252.27C196.713 254.208 199.16 255.525 201.827 256.05L249.482 265.5C251.655 265.939 253.904 265.837 256.028 265.201C258.153 264.565 260.088 263.416 261.663 261.854C263.237 260.293 264.403 258.368 265.057 256.249C265.711 254.13 265.833 251.882 265.412 249.705L255.827 201.645C255.315 199.042 254.047 196.647 252.182 194.76L61.1569 4.13987C58.6275 1.62548 55.2059 0.214172 51.6394 0.214172C48.0729 0.214172 44.6513 1.62548 42.1219 4.13987L3.91687 42.3449C1.40248 44.8743 -0.00883246 48.2959 -0.00883246 51.8624C-0.00883246 55.4289 1.40248 58.8505 3.91687 61.3799L194.807 252.27ZM51.8419 32.7599L80.4619 61.3799L61.1569 80.1449L32.5369 51.7949L51.8419 32.7599ZM252.171 292.501H13.4913C9.91083 292.501 6.47706 291.079 3.94532 288.547C1.41357 286.016 -0.00874567 282.582 -0.00874567 279.001C-0.00874567 275.421 1.41357 271.987 3.94532 269.456C6.47706 266.924 9.91083 265.501 13.4913 265.501H252.171C255.752 265.501 259.185 266.924 261.717 269.456C264.249 271.987 265.671 275.421 265.671 279.001C265.671 282.582 264.249 286.016 261.717 288.547C259.185 291.079 255.752 292.501 252.171 292.501Z" fill="#99A1AF"/>
</svg>
