<svg width="68" height="68" viewBox="0 0 68 68" fill="none" xmlns="http://www.w3.org/2000/svg">
<circle cx="34.3637" cy="34.1479" r="33.6362" fill="black"/>
<path d="M51.6126 23.1452C51.4055 22.2406 50.9999 21.4159 50.4363 20.7535C49.8727 20.0911 49.171 19.6143 48.4014 19.3709C46.2978 18.4163 25.9227 17.9487 20.0121 19.3983C19.2424 19.6417 18.5406 20.1185 17.977 20.781C17.4134 21.4434 17.0078 22.2683 16.8007 23.173C15.8513 28.0688 15.7793 38.6534 16.824 43.6585C17.0311 44.5631 17.4368 45.3879 18.0004 46.0503C18.564 46.7128 19.2657 47.1895 20.0354 47.4329C24.2007 48.5597 44.0034 48.7184 48.4246 47.4329C49.1943 47.1895 49.896 46.7128 50.4596 46.0503C51.0232 45.3879 51.4288 44.5631 51.6358 43.6585C52.6481 38.3247 52.7202 28.3968 51.6126 23.1452Z" stroke="white" stroke-linecap="round" stroke-linejoin="round"/>
<path d="M40.21 33.4016L30.7158 27.0015V39.8015L40.21 33.4016Z" stroke="white" stroke-linecap="round" stroke-linejoin="round"/>
</svg>
